<!-- Generated by IcoMoon.io -->
<svg version="1.1" xmlns="http://www.w3.org/2000/svg" width="32" height="32" viewBox="0 0 32 32">
<title>boxed-eye-2</title>
<path fill="#32aafc" d="M1.667 1.667v28h28v-28h-28zM25.167 15.9c-1.633 2.167-3.567 3.967-6.067 5.1-2.4 1.1-4.8 1-7.133-0.133-2.433-1.167-4.333-2.967-5.967-5.167 2.167-2.8 4.6-5.167 8.133-6 1.8-0.433 3.533-0.1 5.2 0.667 2.5 1.167 4.4 3 6.067 5.2-0.1 0.133-0.167 0.233-0.233 0.333z"></path>
<path fill="#fff" d="M19.3 10.4c-1.667-0.767-3.4-1.1-5.2-0.667-3.533 0.833-5.967 3.2-8.133 6 1.667 2.2 3.567 4 5.967 5.167 2.367 1.133 4.733 1.267 7.133 0.133 2.5-1.133 4.4-2.933 6.067-5.1 0.067-0.1 0.133-0.233 0.2-0.333-1.633-2.2-3.567-4.033-6.033-5.2zM15.667 21.767c-3.367 0-6.067-2.733-6.067-6.1s2.7-6.1 6.067-6.1 6.067 2.733 6.067 6.1c0 3.4-2.7 6.1-6.067 6.1z"></path>
<path fill="#286f8f" d="M21.733 15.667c0 3.369-2.716 6.1-6.067 6.1s-6.067-2.731-6.067-6.1c0-3.369 2.716-6.1 6.067-6.1s6.067 2.731 6.067 6.1z"></path>
</svg>
