<!-- Generated by IcoMoon.io -->
<svg version="1.1" xmlns="http://www.w3.org/2000/svg" width="32" height="32" viewBox="0 0 32 32">
<title>boxed</title>
<path fill="#32aafc" d="M24.533 10.633c0-0.1-0.067-0.167-0.1-0.233l-8.4-4.867c-0.067-0.067-0.167-0.067-0.233 0l-8.367 4.833c-0.067 0.067-0.1 0.1-0.1 0.233 0 0.1 0.067 0.167 0.1 0.233l8.4 4.833c0.067 0.067 0.067 0.067 0.1 0.067 0.067 0 0.1 0 0.1-0.067l8.367-4.8c0.1-0.067 0.133-0.1 0.133-0.233z"></path>
<path fill="#32aafc" d="M6.467 12.467c-0.067-0.067-0.167-0.067-0.233 0s-0.1 0.1-0.1 0.233v9.733c0 0.1 0.067 0.167 0.1 0.233l8.4 4.867c0 0.067 0.067 0.067 0.1 0.067s0.1 0 0.1-0.067 0.1-0.1 0.1-0.233v-9.733c0-0.1-0.067-0.167-0.1-0.233l-8.367-4.867z"></path>
<path fill="#32aafc" d="M25.8 22.5v-9.667c0-0.1-0.067-0.167-0.1-0.233-0.067-0.067-0.167-0.067-0.233 0l-8.4 4.833c-0.067 0.067-0.1 0.1-0.1 0.233v9.6c0 0.1 0.067 0.167 0.1 0.233 0 0.067 0.067 0.067 0.1 0.067 0.067 0 0.067 0 0.1 0l8.4-4.867c0.067-0.033 0.133-0.1 0.133-0.2z"></path>
<path fill="#32aafc" d="M7.6 27.133l-3.9-2.3c-0.1-0.067-0.3-0.333-0.3-0.5v-14.433c0-0.167 0.167-0.467 0.3-0.5l3.9-2.3c0.4-0.233 0.5-0.733 0.3-1.133s-0.733-0.5-1.133-0.3l-3.9 2.267c-0.7 0.333-1.133 1.2-1.133 1.933v14.433c0 0.733 0.467 1.533 1.133 1.933l3.9 2.3c0.1 0.067 0.3 0.1 0.4 0.1 0.3 0 0.5-0.167 0.733-0.4 0.233-0.367 0.1-0.9-0.3-1.1z"></path>
<path fill="#32aafc" d="M29.067 7.933l-3.9-2.267c-0.1-0.067-0.3-0.1-0.4-0.1-0.3 0-0.567 0.167-0.733 0.4-0.233 0.4-0.1 0.9 0.3 1.133l3.9 2.3c0.1 0.067 0.3 0.333 0.3 0.5v14.433c0 0.167-0.167 0.467-0.3 0.5l-3.9 2.3c-0.4 0.233-0.5 0.733-0.3 1.133 0.233 0.4 0.733 0.5 1.133 0.3l3.9-2.3c0.7-0.333 1.133-1.2 1.133-1.933v-14.433c0-0.733-0.433-1.567-1.133-1.967z"></path>
</svg>
