<!-- Generated by IcoMoon.io -->
<svg version="1.1" xmlns="http://www.w3.org/2000/svg" width="32" height="32" viewBox="0 0 32 32">
<title>boxed-eye-01</title>
<path fill="#32aafc" d="M2.067 1.667h27.933v27.933h-27.933v-27.933z"></path>
<path fill="#fff" d="M19.767 10.867c1.367 1.1 2.233 2.8 2.233 4.667 0 2.233-1.2 4.167-2.967 5.2 0.1-0.033 0.2-0.067 0.267-0.133 2.2-1 4.133-2.633 5.9-4.967 0-0.033 0.033-0.033 0.033-0.067-1.7-2.2-3.467-3.7-5.467-4.7z"></path>
<path fill="#fff" d="M10 15.567c0-1.8 0.8-3.433 2.067-4.533-2.167 1.133-3.833 2.933-5.2 4.667 1.767 2.267 3.567 3.8 5.633 4.8 0.067 0.033 0.133 0.067 0.2 0.1-1.633-1.1-2.7-2.933-2.7-5.033z"></path>
<path fill="#286f8f" d="M26.033 15.3c-1.933-2.533-3.9-4.2-6.2-5.3-1.867-0.867-3.7-1.133-5.433-0.7-3.833 0.9-6.367 3.6-8.333 6.133l-0.2 0.233 0.167 0.233c1.867 2.467 3.867 4.2 6.1 5.267 1.3 0.633 2.6 0.967 3.9 0.967 1.2 0 2.367-0.267 3.567-0.8 2.3-1.067 4.333-2.767 6.2-5.2 0.1-0.133 0.167-0.267 0.233-0.367l0.133-0.233-0.133-0.233zM12.5 20.5c-2.1-1-3.9-2.533-5.633-4.8 1.367-1.733 3.033-3.5 5.2-4.667-1.267 1.1-2.067 2.733-2.067 4.533 0 2.1 1.067 3.967 2.7 5.033-0.067-0.033-0.133-0.067-0.2-0.1zM25.2 15.667c-1.767 2.333-3.7 3.967-5.9 4.967-0.1 0.033-0.2 0.067-0.267 0.133 1.767-1.033 2.967-2.967 2.967-5.2 0-1.9-0.867-3.567-2.233-4.667 2 1 3.767 2.5 5.467 4.7 0 0-0.033 0.033-0.033 0.067z"></path>
</svg>
