<!-- Generated by IcoMoon.io -->
<svg version="1.1" xmlns="http://www.w3.org/2000/svg" width="32" height="32" viewBox="0 0 32 32">
<title>clouds</title>
<path fill="#286f8f" d="M27.2 12.833c0-0.1 0-0.167 0-0.267-0.033-2.867-2.6-5.167-5.733-5.133-0.467 0-0.9 0.067-1.333 0.167 2.433 0.7 4.2 2.8 4.167 5.267 0 0.033 0 0.067 0 0.1 2.033 0.767 3.4 2.6 3.4 4.633 0 1.233-0.5 2.433-1.433 3.333-0.433 0.433-0.967 0.767-1.533 1.033h0.867c2.833-0.033 5.067-2.167 5.033-4.767 0-2.033-1.433-3.733-3.433-4.367z"></path>
<path fill="#d02aa4" d="M24 13.367l-0.167-0.067v-0.167c0-0.1 0-0.167 0-0.267 0-2.767-2.433-5.033-5.433-5.067-0.7 0-1.367 0.1-1.967 0.333 2.667 0.533 4.7 2.733 4.667 5.333 0 0.033 0 0.067 0 0.1 2.033 0.733 3.4 2.567 3.4 4.6 0 1.333-0.567 2.567-1.567 3.5-0.133 0.133-0.3 0.233-0.433 0.367 1.3-0.033 2.6-0.533 3.467-1.4 0.833-0.833 1.3-1.9 1.3-3-0.033-1.9-1.333-3.633-3.267-4.267z"></path>
<path fill="#d029a4" d="M19.167 22.633c0 0-0.033 0 0 0l-13.067-0.033c-1.167 0-2.233-0.433-3.033-1.167s-1.233-1.733-1.233-2.767c0-1.867 1.467-3.467 3.433-3.833l0.3-0.067-0.1-0.267c-0.133-0.333-0.2-0.667-0.2-1.033 0-0.767 0.333-1.5 0.933-2.033s1.4-0.833 2.233-0.833c0 0 0 0 0 0 0.633 0 1.233 0.167 1.767 0.5l0.2 0.133 0.133-0.2c0.967-1.533 2.767-2.5 4.7-2.5 0 0 0 0 0 0 3 0 5.433 2.233 5.433 5 0 0.067 0 0.167 0 0.267v0.167l0.167 0.067c1.933 0.633 3.233 2.333 3.233 4.2 0 1.2-0.5 2.3-1.433 3.133-0.967 0.8-2.167 1.267-3.467 1.267zM22.467 22.033c0.167-0.1 0.3-0.233 0.433-0.367 1-0.933 1.567-2.167 1.567-3.5 0-2.033-1.333-3.867-3.4-4.6 0-0.033 0-0.067 0-0.1 0-2.633-2-4.833-4.667-5.333 0.633-0.233 1.3-0.333 1.967-0.333 3 0.033 5.433 2.3 5.433 5.067 0 0.1 0 0.167 0 0.267v0.167l0.167 0.067c1.933 0.667 3.267 2.367 3.233 4.267 0 1.133-0.467 2.2-1.3 3-0.867 0.867-2.133 1.367-3.433 1.4z"></path>
<path fill="#32aafc" d="M22.6 21.333c0.933-0.833 1.433-1.967 1.433-3.133 0-1.9-1.3-3.567-3.233-4.2l-0.167-0.067v-0.167c0-0.1 0-0.167 0-0.267 0-2.733-2.433-5-5.433-5 0 0 0 0 0 0-1.933 0-3.733 0.967-4.7 2.5l-0.133 0.2-0.2-0.133c-0.533-0.333-1.133-0.5-1.767-0.5 0 0 0 0 0 0-0.833 0-1.633 0.3-2.233 0.833s-0.933 1.267-0.933 2.033c0 0.367 0.067 0.7 0.2 1.033l0.1 0.267-0.3 0.067c-2 0.367-3.433 1.967-3.433 3.833 0 1.033 0.433 2.033 1.233 2.767s1.9 1.167 3.033 1.167l13.033 0.033c0 0 0 0 0 0 1.367 0.033 2.567-0.433 3.5-1.267z"></path>
</svg>
