<!-- Generated by IcoMoon.io -->
<svg version="1.1" xmlns="http://www.w3.org/2000/svg" width="32" height="32" viewBox="0 0 32 32">
<title>cloud-set</title>
<path fill="#32aafc" d="M4.867 16.867h-2.533v12.633h12.7v-7.467h-1.833v5.633h-8.967v-8.9h0.8c-0.133-0.4-0.2-0.833-0.2-1.267 0-0.2 0-0.433 0.033-0.633z"></path>
<path fill="#32aafc" d="M27.333 18.767v8.9h-8.967v-5.633h-1.833v7.467h12.7v-12.633h-2.867c0 0.667-0.133 1.3-0.367 1.9h1.333z"></path>
<path fill="#32aafc" d="M7.2 13.533l-2.967-0.067v-8.9h8.967v4.6c0.533-0.533 1.133-0.933 1.833-1.233v-5.2h-12.633v12.633h2.967c0.433-0.767 1.067-1.4 1.833-1.833z"></path>
<path fill="#32aafc" d="M29.233 2.667h-12.7v4.833c0.3-0.033 0.6-0.067 0.9-0.1 0.033 0 0.033 0 0.067 0 0.3 0 0.567 0.033 0.867 0.067v-2.9h8.967v8.9h-2.433c0.533 0.533 0.933 1.133 1.167 1.833h3.167v-12.633z"></path>
<path fill="#fff" d="M23.367 12.4c-0.133-1.3-0.733-2.5-1.767-3.433-0.9-0.8-2.033-1.3-3.233-1.467-0.267-0.033-0.567-0.067-0.867-0.067-0.033 0-0.033 0-0.067 0-0.3 0-0.6 0.033-0.9 0.1-0.533 0.067-1.033 0.233-1.5 0.433-0.7 0.3-1.3 0.733-1.833 1.233-0.1 0.1-0.2 0.2-0.267 0.3-0.433-0.133-0.867-0.2-1.3-0.2-2.167 0.033-3.933 1.7-3.9 3.733 0 0.1 0 0.167 0 0.267-0.167 0.067-0.367 0.167-0.533 0.267-0.767 0.433-1.4 1.067-1.833 1.833-0.267 0.467-0.433 0.967-0.5 1.5-0.033 0.2-0.033 0.433-0.033 0.633 0 0.433 0.067 0.867 0.2 1.267 0.6 1.9 2.5 3.3 4.7 3.3 0 0 0.033 0 0.033 0l11.233-0.133c2.267-0.033 4.2-1.333 4.967-3.2 0.267-0.6 0.4-1.233 0.367-1.9 0 0 0 0 0 0 0-0.533-0.1-1.067-0.3-1.567-0.233-0.7-0.633-1.3-1.167-1.833-0.4-0.433-0.9-0.8-1.5-1.067zM25.067 15.3c0 0 0 0 0 0 0.1 0.233 0.2 0.467 0.267 0.733 0 0.033 0 0.033 0 0.067 0.033 0.1 0.033 0.2 0.067 0.333 0 0.033 0 0.033 0 0.067 0 0.133 0.033 0.267 0.033 0.4 0 0 0 0 0 0s0 0.033 0 0.033c0 0.233-0.033 0.467-0.067 0.7 0 0 0 0.033 0 0.033-0.033 0.1-0.033 0.2-0.067 0.333 0 0.033 0 0.033 0 0.067-0.033 0.1-0.067 0.2-0.1 0.3 0 0.033-0.033 0.033-0.033 0.067-0.033 0.1-0.067 0.167-0.133 0.267 0 0.033-0.033 0.067-0.033 0.067-0.033 0.067-0.1 0.167-0.133 0.233-0.033 0.033-0.033 0.067-0.067 0.1-0.033 0.067-0.1 0.133-0.167 0.2-0.033 0.033-0.067 0.067-0.067 0.1-0.067 0.067-0.1 0.133-0.167 0.2-0.033 0.033-0.067 0.067-0.1 0.1-0.067 0.067-0.1 0.1-0.167 0.167-0.033 0.033-0.067 0.067-0.133 0.1s-0.133 0.1-0.167 0.133c-0.033 0.033-0.1 0.067-0.133 0.1-0.067 0.033-0.133 0.1-0.2 0.133s-0.1 0.067-0.167 0.1c-0.067 0.033-0.133 0.067-0.2 0.1s-0.133 0.067-0.2 0.1c-0.067 0.033-0.133 0.067-0.2 0.067-0.067 0.033-0.133 0.033-0.2 0.067s-0.133 0.033-0.167 0.067c-0.067 0.033-0.167 0.033-0.233 0.067-0.067 0-0.1 0.033-0.167 0.033-0.1 0.033-0.2 0.033-0.267 0.033-0.033 0-0.1 0-0.133 0.033-0.133 0-0.3 0.033-0.433 0.033l-11.233 0.1c-2.167 0.033-3.933-1.567-3.933-3.567 0-1.733 1.3-3.2 3.1-3.533-0.133-0.3-0.2-0.633-0.2-0.967 0-1.5 1.3-2.7 2.9-2.733 0.6 0 1.167 0.167 1.633 0.433 0.1-0.133 0.167-0.267 0.267-0.4 0-0.033 0.033-0.033 0.033-0.067 0.1-0.133 0.2-0.233 0.3-0.333 0.033-0.033 0.033-0.033 0.067-0.067 0.1-0.1 0.233-0.2 0.367-0.3 0 0 0.033-0.033 0.033-0.033 0.133-0.1 0.267-0.2 0.4-0.3 0 0 0 0 0 0 0.167-0.1 0.3-0.167 0.467-0.267 0 0 0 0 0 0 0.167-0.067 0.333-0.133 0.5-0.2 0 0 0.033 0 0.033 0 0.167-0.067 0.333-0.1 0.5-0.167 0 0 0.033 0 0.033 0 0.267-0.067 0.567-0.1 0.833-0.133 0.1 0 0.2 0 0.3 0 0.133 0 0.267 0 0.433 0 0.267 0.033 0.533 0.067 0.8 0.133 0 0 0 0 0 0 0.133 0.033 0.267 0.067 0.4 0.1 0 0 0 0 0 0 0.8 0.267 1.5 0.7 2.033 1.233 0 0 0.033 0.033 0.033 0.033 0.067 0.067 0.133 0.133 0.2 0.2 0.033 0.033 0.067 0.067 0.1 0.1 0.067 0.067 0.1 0.133 0.133 0.2s0.067 0.1 0.1 0.167c0.033 0.067 0.067 0.133 0.1 0.2s0.067 0.133 0.1 0.167c0.033 0.067 0.067 0.133 0.1 0.2s0.067 0.133 0.1 0.2c0.033 0.067 0.033 0.133 0.067 0.167 0.033 0.067 0.033 0.167 0.067 0.233 0 0.067 0.033 0.1 0.033 0.167 0.033 0.1 0.033 0.2 0.033 0.267 0 0.033 0.033 0.1 0.033 0.133 0 0.133 0.033 0.3 0.033 0.433 0 0.067 0 0.167 0 0.233 0.167 0.067 0.333 0.133 0.5 0.2 0 0 0.033 0 0.033 0 0.967 0.467 1.7 1.167 2.1 2.033 0 0 0 0 0 0z"></path>
<path fill="#32aafc" d="M23.033 13.333c0 0-0.033 0-0.033 0-0.167-0.067-0.333-0.133-0.5-0.2 0-0.067 0-0.167 0-0.233 0-0.133 0-0.3-0.033-0.433 0-0.033 0-0.1-0.033-0.133 0-0.1-0.033-0.2-0.033-0.267s-0.033-0.1-0.033-0.167c-0.033-0.067-0.033-0.167-0.067-0.233s-0.033-0.133-0.067-0.167c-0.033-0.067-0.067-0.133-0.1-0.2s-0.067-0.133-0.1-0.2c-0.033-0.067-0.067-0.133-0.1-0.167-0.033-0.067-0.067-0.133-0.1-0.2s-0.067-0.1-0.1-0.167c-0.033-0.067-0.1-0.133-0.133-0.2-0.033-0.033-0.067-0.067-0.1-0.1-0.067-0.067-0.133-0.133-0.2-0.2 0 0-0.033-0.033-0.033-0.033-0.533-0.567-1.233-1-2.033-1.233 0 0 0 0 0 0-0.133-0.033-0.267-0.067-0.4-0.1 0 0 0 0 0 0-0.267-0.067-0.533-0.1-0.8-0.133-0.133 0-0.267-0.033-0.433 0-0.1 0-0.2 0-0.3 0-0.3 0.033-0.567 0.067-0.833 0.133 0 0-0.033 0-0.033 0-0.167 0.033-0.333 0.1-0.5 0.167 0 0-0.033 0-0.033 0-0.167 0.067-0.333 0.133-0.5 0.2 0 0 0 0 0 0-0.167 0.067-0.333 0.167-0.467 0.267 0 0 0 0 0 0-0.133 0.1-0.267 0.2-0.4 0.3 0 0-0.033 0.033-0.033 0.033-0.133 0.1-0.233 0.2-0.367 0.3-0.033 0.033-0.033 0.033-0.067 0.067-0.1 0.1-0.2 0.233-0.3 0.333 0 0.033-0.033 0.033-0.033 0.067-0.1 0.133-0.2 0.267-0.267 0.4-0.467-0.267-1.033-0.433-1.633-0.433-1.6 0-2.9 1.233-2.9 2.733 0 0.333 0.067 0.667 0.2 0.967-1.767 0.333-3.1 1.8-3.1 3.533 0.033 1.967 1.767 3.567 3.933 3.567l11.233-0.1c0.133 0 0.3 0 0.433-0.033 0.033 0 0.1 0 0.133-0.033 0.1 0 0.2-0.033 0.267-0.033s0.1-0.033 0.167-0.033c0.067-0.033 0.167-0.033 0.233-0.067s0.133-0.033 0.167-0.067c0.067-0.033 0.133-0.033 0.2-0.067s0.133-0.067 0.2-0.067c0.067-0.033 0.133-0.067 0.2-0.1s0.133-0.067 0.2-0.1c0.067-0.033 0.1-0.067 0.167-0.1s0.133-0.067 0.2-0.133c0.033-0.033 0.1-0.067 0.133-0.1 0.067-0.033 0.133-0.1 0.167-0.133s0.067-0.067 0.133-0.1c0.067-0.067 0.133-0.1 0.167-0.167 0.033-0.033 0.067-0.067 0.1-0.1 0.067-0.067 0.1-0.133 0.167-0.2 0.033-0.033 0.067-0.067 0.067-0.1 0.067-0.067 0.1-0.133 0.167-0.2 0.033-0.033 0.033-0.067 0.067-0.1 0.067-0.067 0.1-0.167 0.133-0.233 0-0.033 0.033-0.067 0.033-0.067 0.033-0.1 0.1-0.167 0.133-0.267 0-0.033 0.033-0.033 0.033-0.067 0.033-0.1 0.067-0.2 0.1-0.3 0-0.033 0-0.033 0-0.067 0.033-0.1 0.067-0.2 0.067-0.333 0 0 0-0.033 0-0.033 0.033-0.233 0.067-0.467 0.067-0.7 0 0 0-0.033 0-0.033 0-0.133 0-0.267-0.033-0.4 0-0.033 0-0.033 0-0.067 0-0.1-0.033-0.2-0.067-0.333 0-0.033 0-0.033 0-0.067-0.067-0.267-0.167-0.5-0.267-0.733 0 0 0 0 0 0-0.467-0.933-1.2-1.633-2.1-2.033z"></path>
</svg>
