<!-- Generated by IcoMoon.io -->
<svg version="1.1" xmlns="http://www.w3.org/2000/svg" width="32" height="32" viewBox="0 0 32 32">
<title>drag-drop-02</title>
<path fill="#b5b0b1" d="M27.494 11.955c0-0.026 0-0.026-0.026-0.051 0-0.026-0.026-0.051-0.051-0.077 0 0 0-0.026-0.026-0.026-0.026-0.026-0.051-0.077-0.077-0.102l-3.84-3.84c-0.026-0.026-0.051-0.051-0.102-0.077h-0.026c-0.026-0.026-0.051-0.026-0.077-0.051h-0.026c-0.026 0-0.051-0.026-0.077-0.026-0.051 0-0.077 0-0.128 0h-8.96c-0.358 0-0.64 0.282-0.64 0.64v15.36c0 0.358 0.282 0.64 0.64 0.64h12.8c0.358 0 0.64-0.282 0.64-0.64v-11.52c0-0.051 0-0.077 0-0.128-0.026-0.051-0.026-0.077-0.026-0.102zM23.68 9.856l1.664 1.664h-1.664v-1.664zM26.24 23.040h-11.52v-14.080h7.68v3.2c0 0.358 0.282 0.64 0.64 0.64h3.2v10.24z"></path>
<path fill="#b5b0b1" d="M9.6 4.48c-0.358 0-0.64 0.282-0.64 0.64v15.36c0 0.358 0.282 0.64 0.64 0.64s0.64-0.282 0.64-0.64v-14.72h8.32c0.358 0 0.64-0.282 0.64-0.64s-0.282-0.64-0.64-0.64h-8.96z"></path>
<path fill="#b5b0b1" d="M5.12 17.92c0.358 0 0.64-0.282 0.64-0.64v-14.72h8.32c0.358 0 0.64-0.282 0.64-0.64s-0.282-0.64-0.64-0.64h-8.96c-0.358 0-0.64 0.282-0.64 0.64v15.36c0 0.358 0.282 0.64 0.64 0.64z"></path>
</svg>
