<!-- Generated by IcoMoon.io -->
<svg version="1.1" xmlns="http://www.w3.org/2000/svg" width="32" height="32" viewBox="0 0 32 32">
<title>fujitsu-cloud</title>
<path fill="#d11124" d="M29.2 14.567c-0.4-0.533-0.9-0.967-1.467-1.367-0.433-0.3-0.867-0.533-1.333-0.733-0.033-0.9-0.233-1.767-0.6-2.567-0.367-0.833-0.933-1.567-1.633-2.233-0.7-0.633-1.5-1.133-2.4-1.5-0.933-0.367-1.9-0.533-2.9-0.533 0 0 0 0 0 0-1.333 0-2.667 0.333-3.8 0.967-0.933 0.5-1.733 1.167-2.333 2-0.633-0.3-1.333-0.433-2.067-0.433 0 0 0 0 0 0-1.267 0-2.467 0.467-3.367 1.3-0.433 0.4-0.8 0.9-1.033 1.433-0.267 0.567-0.4 1.133-0.4 1.767 0 0.3 0.033 0.567 0.1 0.867-1.067 0.333-2.033 0.933-2.767 1.767-0.467 0.5-0.8 1.067-1.033 1.667-0.267 0.633-0.367 1.3-0.367 2 0 0.767 0.167 1.533 0.5 2.233 0.3 0.7 0.767 1.3 1.333 1.833 1.167 1.067 2.7 1.667 4.333 1.667l15.7-0.033c0 0 0 0 0 0 0.9 0 1.8-0.167 2.633-0.5 0.8-0.3 1.533-0.767 2.167-1.333s1.133-1.267 1.467-2.033c0.367-0.8 0.533-1.633 0.533-2.5 0.033-1.333-0.4-2.633-1.267-3.733zM22.1 18.9c-0.6 0.633-1.333 1.067-2.233 1.2-1.333 0.233-2.533-0.133-3.533-1.033-0.267-0.233-0.5-0.533-0.733-0.833-0.267-0.267-0.5-0.567-0.767-0.833-0.433-0.433-1-0.667-1.633-0.6-0.933 0.067-1.7 0.767-1.867 1.667-0.233 1.133 0.5 2.233 1.667 2.433 0.7 0.1 1.333-0.067 1.867-0.5 0.4-0.333 0.733-0.7 0.967-1.133 0 0 0-0.033 0.033-0.033 0 0 0 0 0 0 0 0.033 0 0.033 0 0.067 0 0.567 0 1.1 0 1.667 0 0.033 0 0.067-0.033 0.1-0.5 0.567-1.167 0.933-1.933 1.033-0.833 0.133-1.633-0.033-2.367-0.5-0.8-0.5-1.3-1.233-1.467-2.167-0.2-1.1 0.1-2.067 0.867-2.867 0.533-0.567 1.167-0.867 1.9-1 0.767-0.1 1.5 0 2.167 0.4 0.3 0.167 0.533 0.4 0.767 0.667 0.333 0.367 0.667 0.767 1 1.133 0.3 0.333 0.633 0.633 1.067 0.833 0.467 0.233 0.967 0.333 1.5 0.267 1.267-0.1 2.3-1.067 2.533-2.333 0.267-1.5-0.733-2.933-2.2-3.233-0.967-0.2-1.8 0.067-2.5 0.733-0.467 0.433-0.8 1-1.067 1.567-0.067 0.133-0.1 0.267-0.167 0.4 0-0.033 0-0.033 0-0.067 0-0.767 0-1.533 0-2.267 0-0.067 0-0.1 0.033-0.133 0.6-0.733 1.333-1.233 2.267-1.467s1.8-0.133 2.667 0.3c1.167 0.6 1.933 1.533 2.233 2.8 0.267 1.433-0.067 2.667-1.033 3.733z"></path>
<path fill="#fff" d="M20.867 12.367c-0.833-0.433-1.733-0.533-2.667-0.3s-1.667 0.733-2.267 1.467c-0.033 0.033-0.033 0.067-0.033 0.133 0 0.767 0 1.533 0 2.267 0 0.033 0 0.033 0 0.067 0.067-0.133 0.1-0.267 0.167-0.4 0.267-0.6 0.6-1.133 1.067-1.567 0.733-0.667 1.567-0.9 2.5-0.733 1.5 0.3 2.467 1.733 2.2 3.233-0.2 1.267-1.233 2.2-2.533 2.333-0.533 0.033-1.033-0.067-1.5-0.267-0.4-0.2-0.767-0.5-1.067-0.833-0.333-0.367-0.667-0.767-1-1.133-0.233-0.267-0.467-0.5-0.767-0.667-0.667-0.367-1.4-0.5-2.167-0.4-0.733 0.1-1.4 0.433-1.9 1-0.767 0.8-1.033 1.767-0.867 2.867 0.167 0.933 0.667 1.633 1.467 2.167 0.733 0.467 1.5 0.6 2.367 0.5 0.767-0.1 1.4-0.467 1.933-1.033 0.033-0.033 0.033-0.067 0.033-0.1 0-0.567 0-1.1 0-1.667 0-0.033 0-0.033 0-0.067 0 0 0 0 0 0s0 0.033-0.033 0.033c-0.267 0.433-0.6 0.8-0.967 1.133-0.533 0.433-1.167 0.633-1.867 0.5-1.167-0.2-1.9-1.267-1.667-2.433 0.167-0.9 0.967-1.6 1.867-1.667 0.633-0.033 1.167 0.167 1.633 0.6 0.267 0.267 0.5 0.567 0.767 0.833 0.233 0.267 0.467 0.567 0.733 0.833 1 0.933 2.2 1.267 3.533 1.033 0.867-0.133 1.633-0.533 2.233-1.2 0.967-1.067 1.333-2.3 1.033-3.7-0.3-1.3-1.033-2.233-2.233-2.833z"></path>
</svg>
