<!-- Generated by IcoMoon.io -->
<svg version="1.1" xmlns="http://www.w3.org/2000/svg" width="32" height="32" viewBox="0 0 32 32">
<title>intercept-02</title>
<path fill="#fff" d="M29 10.2c-0.167-0.067-0.3-0.133-0.467-0.167 0.767 0.333 1.3 1.1 1.3 2s-0.533 1.667-1.333 2c0.133-0.033 0.267-0.1 0.4-0.167 0.833-0.367 1.567-1 2.267-1.867-0.667-0.867-1.367-1.433-2.167-1.8z"></path>
<path fill="#fff" d="M26.8 14c-0.767-0.333-1.3-1.1-1.3-1.967s0.5-1.6 1.233-1.933c-1.1 0.367-1.867 1.133-2.533 1.967 0.667 0.833 1.333 1.4 2.133 1.767 0.167 0.033 0.3 0.1 0.467 0.167z"></path>
<path fill="#39f" d="M29.167 9.833c-0.467-0.233-0.967-0.367-1.467-0.367-0.233 0-0.433 0.033-0.667 0.067-1.467 0.333-2.433 1.333-3.333 2.467 0.667 0.9 1.467 1.633 2.467 2.133 0.5 0.233 1.033 0.367 1.533 0.367 0.467 0 0.933-0.1 1.4-0.333 1.033-0.467 1.8-1.2 2.5-2.1 0.033-0.033 0.067-0.1 0.1-0.133-0.733-0.867-1.5-1.6-2.533-2.1zM28.933 13.833c-0.133 0.067-0.267 0.1-0.4 0.167 0.767-0.333 1.333-1.1 1.333-2s-0.533-1.667-1.3-2c0.167 0.033 0.3 0.1 0.467 0.167 0.8 0.367 1.5 0.933 2.167 1.8-0.7 0.9-1.433 1.5-2.267 1.867zM24.2 12.033c0.667-0.833 1.467-1.6 2.533-1.967-0.733 0.333-1.233 1.1-1.233 1.933 0 0.867 0.533 1.633 1.3 1.967-0.167-0.067-0.333-0.1-0.5-0.2-0.767-0.367-1.433-0.933-2.1-1.733z"></path>
<path fill="#36abfc" d="M1.733 15.733c-0.1 0-0.2-0.033-0.267-0.1-0.1-0.067-0.133-0.167-0.133-0.3 0-0.1 0.033-0.2 0.1-0.267s0.167-0.1 0.267-0.1c0.1 0 0.2 0.033 0.267 0.1s0.1 0.167 0.1 0.267c0 0.133-0.033 0.2-0.1 0.267-0.067 0.1-0.133 0.133-0.233 0.133zM2.1 16.5v2.2c0 0.167-0.033 0.267-0.1 0.333s-0.167 0.133-0.267 0.133c-0.1 0-0.2-0.033-0.267-0.133-0.1-0.033-0.133-0.167-0.133-0.3v-2.2c0-0.167 0.033-0.267 0.1-0.333s0.167-0.1 0.267-0.1c0.1 0 0.2 0.033 0.267 0.1 0.1 0.067 0.133 0.167 0.133 0.3z"></path>
<path fill="#36abfc" d="M3.6 16.5v0.1c0.133-0.167 0.267-0.3 0.433-0.4 0.167-0.067 0.333-0.133 0.567-0.133 0.2 0 0.367 0.033 0.533 0.133s0.267 0.2 0.367 0.367c0.067 0.1 0.067 0.2 0.1 0.3 0 0.1 0.033 0.233 0.033 0.4v1.433c0 0.167-0.033 0.267-0.1 0.333s-0.167 0.133-0.267 0.133c-0.1 0-0.2-0.033-0.267-0.133-0.067-0.067-0.1-0.2-0.1-0.333v-1.267c0-0.267-0.033-0.433-0.1-0.567-0.133-0.133-0.267-0.2-0.5-0.2-0.133 0-0.267 0.033-0.367 0.133-0.1 0.067-0.2 0.2-0.233 0.333-0.033 0.1-0.067 0.333-0.067 0.633v0.967c0 0.167-0.033 0.267-0.1 0.333s-0.167 0.1-0.267 0.1c-0.1 0-0.2-0.033-0.267-0.133-0.067-0.067-0.1-0.2-0.1-0.333v-2.2c0-0.133 0.033-0.267 0.1-0.333s0.167-0.1 0.267-0.1c0.067 0 0.133 0 0.167 0.033 0.067 0.033 0.1 0.067 0.133 0.133 0 0.1 0.033 0.167 0.033 0.267z"></path>
<path fill="#36abfc" d="M6.4 16.133h0.1v-0.467c0-0.133 0-0.233 0-0.3s0.033-0.133 0.067-0.167c0.033-0.067 0.067-0.1 0.133-0.133s0.133-0.033 0.2-0.033c0.1 0 0.2 0.033 0.267 0.1 0.067 0.033 0.1 0.1 0.1 0.167s0.033 0.167 0.033 0.3v0.533h0.267c0.1 0 0.2 0.033 0.233 0.067 0.067 0.067 0.1 0.133 0.1 0.2 0 0.1-0.033 0.167-0.133 0.2-0.067 0.033-0.2 0.067-0.333 0.067h-0.133v1.4c0 0.133 0 0.2 0 0.267s0.033 0.133 0.067 0.167c0.033 0.033 0.1 0.067 0.167 0.067 0.033 0 0.1 0 0.167-0.033 0.067 0 0.133-0.033 0.167-0.033 0.067 0 0.133 0.033 0.167 0.067s0.067 0.1 0.067 0.2c0 0.133-0.067 0.233-0.2 0.267-0.133 0.067-0.333 0.1-0.567 0.1s-0.433-0.033-0.533-0.133c-0.133-0.067-0.2-0.2-0.233-0.333s-0.067-0.333-0.067-0.567v-1.467h-0.1c-0.1 0-0.2-0.033-0.267-0.067-0.067-0.067-0.1-0.133-0.1-0.2s0.033-0.133 0.1-0.2c0.067 0 0.167-0.033 0.267-0.033z"></path>
<path fill="#36abfc" d="M10.533 17.833h-1.5c0 0.167 0.033 0.333 0.1 0.467s0.167 0.233 0.267 0.3c0.1 0.067 0.233 0.1 0.367 0.1 0.1 0 0.167 0 0.267-0.033 0.067-0.033 0.133-0.067 0.233-0.1 0.067-0.033 0.133-0.1 0.2-0.133 0.067-0.067 0.133-0.133 0.233-0.2 0.033-0.033 0.1-0.067 0.167-0.067s0.133 0.033 0.2 0.067c0.033 0.033 0.067 0.1 0.067 0.167s-0.033 0.167-0.067 0.233c-0.067 0.1-0.133 0.167-0.233 0.267s-0.233 0.167-0.4 0.2c-0.167 0.067-0.367 0.1-0.567 0.1-0.5 0-0.867-0.133-1.133-0.433-0.267-0.267-0.4-0.667-0.4-1.133 0-0.233 0.033-0.433 0.1-0.633s0.167-0.367 0.3-0.5c0.133-0.133 0.3-0.233 0.467-0.333 0.2-0.067 0.4-0.1 0.633-0.1 0.3 0 0.567 0.067 0.767 0.2s0.367 0.3 0.467 0.5c0.1 0.2 0.167 0.4 0.167 0.6s-0.067 0.333-0.167 0.367c-0.167 0.067-0.333 0.1-0.533 0.1zM9.033 17.4h1.4c-0.033-0.267-0.1-0.467-0.2-0.6-0.133-0.133-0.3-0.2-0.5-0.2s-0.333 0.067-0.467 0.2c-0.133 0.133-0.2 0.333-0.233 0.6z"></path>
<path fill="#36abfc" d="M12.567 18.067v0.633c0 0.167-0.033 0.267-0.1 0.333s-0.167 0.1-0.267 0.1c-0.1 0-0.2-0.033-0.267-0.133-0.067-0.067-0.1-0.2-0.1-0.333v-2.133c0-0.333 0.133-0.5 0.367-0.5 0.133 0 0.233 0.033 0.267 0.133 0.067 0.067 0.1 0.2 0.1 0.367 0.1-0.167 0.2-0.267 0.267-0.367 0.1-0.067 0.233-0.133 0.4-0.133s0.333 0.033 0.467 0.133c0.167 0.067 0.233 0.2 0.233 0.333 0 0.1-0.033 0.167-0.1 0.233s-0.133 0.1-0.2 0.1c-0.033 0-0.1-0.033-0.2-0.067s-0.2-0.067-0.3-0.067c-0.1 0-0.2 0.033-0.267 0.1s-0.133 0.133-0.167 0.267c-0.033 0.1-0.067 0.267-0.067 0.4-0.067 0.2-0.067 0.4-0.067 0.6z"></path>
<path fill="#36abfc" d="M16.933 18.233c0 0.1-0.033 0.2-0.1 0.3s-0.133 0.2-0.267 0.3c-0.133 0.1-0.267 0.167-0.433 0.233s-0.367 0.1-0.6 0.1c-0.467 0-0.833-0.133-1.1-0.4s-0.4-0.633-0.4-1.1c0-0.3 0.067-0.6 0.167-0.833 0.133-0.233 0.3-0.433 0.533-0.567s0.5-0.2 0.833-0.2c0.2 0 0.367 0.033 0.533 0.1s0.3 0.133 0.433 0.233c0.1 0.1 0.2 0.2 0.267 0.3s0.1 0.2 0.1 0.3c0 0.1-0.033 0.167-0.1 0.233s-0.167 0.1-0.233 0.1c-0.067 0-0.1 0-0.167-0.033-0.033-0.033-0.1-0.1-0.133-0.167-0.1-0.133-0.2-0.233-0.3-0.333-0.1-0.067-0.233-0.1-0.4-0.1-0.233 0-0.4 0.1-0.533 0.267s-0.2 0.433-0.2 0.733c0 0.133 0.033 0.267 0.067 0.4s0.1 0.233 0.167 0.3c0.067 0.1 0.133 0.133 0.233 0.2 0.1 0.033 0.2 0.067 0.3 0.067 0.167 0 0.3-0.033 0.4-0.1s0.2-0.167 0.3-0.333c0.033-0.1 0.1-0.167 0.167-0.2s0.133-0.067 0.2-0.067c0.1 0 0.167 0.033 0.233 0.1 0 0 0.033 0.1 0.033 0.167z"></path>
<path fill="#36abfc" d="M19.733 17.833h-1.5c0 0.167 0.033 0.333 0.1 0.467s0.167 0.233 0.267 0.3c0.1 0.067 0.233 0.1 0.367 0.1 0.1 0 0.167 0 0.267-0.033 0.067-0.033 0.133-0.067 0.233-0.1 0.067-0.033 0.133-0.1 0.2-0.133 0.067-0.067 0.133-0.133 0.233-0.2 0.033-0.033 0.1-0.067 0.167-0.067s0.133 0.033 0.2 0.067c0.033 0.033 0.067 0.1 0.067 0.167s-0.033 0.167-0.067 0.233c-0.067 0.1-0.133 0.167-0.233 0.267s-0.233 0.167-0.4 0.2c-0.167 0.067-0.367 0.1-0.567 0.1-0.5 0-0.867-0.133-1.133-0.433-0.267-0.267-0.4-0.667-0.4-1.133 0-0.233 0.033-0.433 0.1-0.633s0.167-0.367 0.3-0.5c0.133-0.133 0.3-0.233 0.467-0.333 0.2-0.067 0.4-0.1 0.633-0.1 0.3 0 0.567 0.067 0.767 0.2s0.367 0.3 0.467 0.5c0.1 0.2 0.167 0.4 0.167 0.6s-0.067 0.333-0.167 0.367c-0.2 0.067-0.333 0.1-0.533 0.1zM18.233 17.4h1.4c-0.033-0.267-0.1-0.467-0.2-0.6-0.133-0.133-0.3-0.2-0.5-0.2s-0.333 0.067-0.467 0.2c-0.133 0.133-0.2 0.333-0.233 0.6z"></path>
<path fill="#36abfc" d="M21.633 16.5v0.1c0.133-0.167 0.3-0.3 0.433-0.4 0.167-0.067 0.333-0.133 0.533-0.133 0.233 0 0.467 0.067 0.667 0.167 0.2 0.133 0.367 0.3 0.467 0.533s0.167 0.5 0.167 0.833c0 0.233-0.033 0.467-0.1 0.633-0.067 0.2-0.167 0.367-0.267 0.5s-0.267 0.233-0.4 0.3c-0.167 0.067-0.333 0.1-0.5 0.1-0.233 0-0.4-0.033-0.567-0.133-0.133-0.1-0.3-0.233-0.433-0.4v1.133c0 0.333-0.133 0.5-0.367 0.5-0.133 0-0.233-0.033-0.3-0.133-0.033-0.1-0.067-0.2-0.067-0.367v-3.3c0-0.133 0.033-0.267 0.1-0.333s0.167-0.1 0.267-0.1c0.1 0 0.2 0.033 0.267 0.1 0.067 0.167 0.1 0.267 0.1 0.4zM23.133 17.633c0-0.2-0.033-0.367-0.1-0.533-0.067-0.133-0.133-0.267-0.267-0.333-0.1-0.067-0.233-0.1-0.367-0.1-0.2 0-0.4 0.067-0.533 0.233s-0.233 0.4-0.233 0.733c0 0.3 0.067 0.533 0.2 0.7s0.333 0.267 0.533 0.267c0.133 0 0.233-0.033 0.367-0.1 0.1-0.067 0.2-0.2 0.267-0.333 0.1-0.167 0.133-0.333 0.133-0.533z"></path>
<path fill="#36abfc" d="M24.567 16.133h0.1v-0.467c0-0.133 0-0.233 0-0.3s0.033-0.133 0.067-0.167c0.033-0.067 0.067-0.1 0.133-0.133s0.133-0.033 0.2-0.033c0.1 0 0.2 0.033 0.267 0.1 0.067 0.033 0.1 0.1 0.1 0.167s0.033 0.167 0.033 0.3v0.533h0.267c0.1 0 0.2 0.033 0.233 0.067 0.067 0.067 0.1 0.133 0.1 0.2 0 0.1-0.033 0.167-0.133 0.2-0.067 0.033-0.2 0.067-0.333 0.067h-0.133v1.4c0 0.133 0 0.2 0 0.267s0.033 0.133 0.067 0.167c0.033 0.033 0.1 0.067 0.167 0.067 0.033 0 0.1 0 0.167-0.033 0.067 0 0.133-0.033 0.167-0.033 0.067 0 0.133 0.033 0.167 0.067s0.067 0.1 0.067 0.2c0 0.133-0.067 0.233-0.2 0.267-0.133 0.067-0.333 0.1-0.567 0.1s-0.433-0.033-0.533-0.133c-0.133-0.067-0.2-0.2-0.233-0.333s-0.067-0.333-0.067-0.567v-1.467h-0.1c-0.1 0-0.2-0.033-0.267-0.067-0.067-0.067-0.1-0.133-0.1-0.2s0.033-0.133 0.1-0.2c0.067 0 0.133-0.033 0.267-0.033z"></path>
</svg>
