<!-- Generated by IcoMoon.io -->
<svg version="1.1" xmlns="http://www.w3.org/2000/svg" width="32" height="32" viewBox="0 0 32 32">
<title>intercept-whole-01</title>
<path fill="#32aafc" d="M1.8 24.9c-0.1 0-0.2 0.033-0.267 0.1s-0.1 0.167-0.1 0.333v2.1c0 0.133 0.033 0.267 0.1 0.333s0.167 0.1 0.267 0.1 0.2-0.033 0.267-0.1 0.1-0.2 0.1-0.333v-2.1c0-0.133-0.033-0.233-0.1-0.3-0.1-0.1-0.167-0.133-0.267-0.133z"></path>
<path fill="#32aafc" d="M1.8 23.867c-0.1 0-0.2 0.033-0.267 0.1s-0.1 0.167-0.1 0.267c0 0.1 0.033 0.2 0.1 0.267s0.167 0.1 0.267 0.1c0.1 0 0.167-0.033 0.267-0.1 0.067-0.067 0.1-0.167 0.1-0.267s-0.033-0.2-0.1-0.267c-0.1-0.067-0.167-0.1-0.267-0.1z"></path>
<path fill="#32aafc" d="M5.367 25.4c-0.067-0.167-0.2-0.267-0.333-0.367-0.167-0.1-0.333-0.133-0.5-0.133-0.2 0-0.367 0.033-0.533 0.133-0.167 0.067-0.3 0.2-0.433 0.367v-0.1c0-0.1 0-0.167-0.033-0.233s-0.067-0.1-0.133-0.133c-0.067-0.033-0.1-0.033-0.167-0.033-0.1 0-0.2 0.033-0.233 0.1-0.067 0.067-0.1 0.167-0.1 0.3v2.1c0 0.133 0.033 0.267 0.1 0.333s0.167 0.1 0.267 0.1c0.1 0 0.2-0.033 0.267-0.1s0.1-0.2 0.1-0.333v-0.9c0-0.3 0.033-0.5 0.067-0.6 0.067-0.133 0.133-0.233 0.233-0.333 0.1-0.067 0.233-0.1 0.367-0.1 0.2 0 0.333 0.067 0.4 0.2s0.1 0.3 0.1 0.567v1.2c0 0.133 0.033 0.267 0.1 0.333s0.167 0.1 0.267 0.1c0.1 0 0.2-0.033 0.267-0.1s0.1-0.2 0.1-0.333v-1.367c0-0.167 0-0.3-0.033-0.4s-0.067-0.167-0.133-0.267z"></path>
<path fill="#32aafc" d="M7.633 27.267c-0.033 0-0.1 0-0.167 0.033-0.067 0-0.133 0.033-0.167 0.033-0.067 0-0.133-0.033-0.167-0.067s-0.067-0.1-0.067-0.133c0-0.067 0-0.133 0-0.267v-1.333h0.133c0.133 0 0.267-0.033 0.333-0.067s0.1-0.1 0.133-0.2c0-0.067-0.033-0.133-0.067-0.2-0.1-0.067-0.167-0.067-0.267-0.067h-0.267v-0.5c0-0.133 0-0.233-0.033-0.3 0-0.067-0.033-0.133-0.1-0.167-0.067-0.067-0.167-0.1-0.267-0.1-0.067 0-0.133 0-0.167 0.033-0.067 0.033-0.1 0.067-0.133 0.133-0.033 0.033-0.033 0.1-0.067 0.167 0 0.067 0 0.167 0 0.267v0.433h-0.067c-0.1 0-0.2 0.033-0.267 0.067s-0.1 0.1-0.1 0.2c0 0.067 0.033 0.133 0.067 0.2 0.067 0.067 0.133 0.067 0.233 0.067h0.1v1.4c0 0.233 0.033 0.4 0.067 0.533s0.1 0.233 0.233 0.333c0.133 0.067 0.3 0.1 0.533 0.1s0.433-0.033 0.567-0.1c0.133-0.067 0.2-0.167 0.2-0.267 0-0.067-0.033-0.133-0.067-0.167s-0.1-0.067-0.167-0.067z"></path>
<path fill="#32aafc" d="M10.633 26.5c0.1-0.067 0.167-0.167 0.167-0.367s-0.033-0.4-0.167-0.567c-0.1-0.2-0.267-0.333-0.467-0.467s-0.433-0.167-0.733-0.167c-0.233 0-0.433 0.033-0.6 0.1s-0.333 0.167-0.467 0.3c-0.133 0.133-0.233 0.3-0.267 0.467-0.067 0.2-0.1 0.4-0.1 0.6 0 0.467 0.133 0.833 0.4 1.1s0.633 0.4 1.1 0.4c0.2 0 0.4-0.033 0.533-0.067 0.167-0.067 0.3-0.133 0.4-0.2s0.167-0.167 0.233-0.267c0.067-0.1 0.067-0.167 0.067-0.233s-0.033-0.133-0.067-0.167c-0.033-0.033-0.1-0.067-0.167-0.067s-0.133 0-0.167 0.033c-0.1 0.1-0.167 0.167-0.233 0.2s-0.133 0.1-0.2 0.133c-0.067 0.033-0.133 0.067-0.2 0.1s-0.167 0.033-0.233 0.033c-0.133 0-0.233-0.033-0.367-0.1-0.1-0.067-0.2-0.167-0.267-0.3s-0.1-0.267-0.1-0.433h1.433c0.2 0.033 0.367 0 0.467-0.067zM8.767 26.167c0.033-0.233 0.1-0.433 0.2-0.567 0.133-0.133 0.267-0.2 0.433-0.2 0.2 0 0.333 0.067 0.467 0.2 0.1 0.133 0.167 0.3 0.2 0.567h-1.3z"></path>
<path fill="#32aafc" d="M13.2 25.033c-0.133-0.067-0.3-0.1-0.433-0.1-0.167 0-0.267 0.033-0.367 0.1s-0.167 0.2-0.267 0.333c0-0.133-0.033-0.267-0.1-0.333s-0.133-0.1-0.267-0.1c-0.233 0-0.367 0.167-0.367 0.5v2.033c0 0.133 0.033 0.267 0.1 0.333s0.167 0.1 0.267 0.1c0.1 0 0.2-0.033 0.267-0.1s0.1-0.2 0.1-0.333v-0.6c0-0.233 0-0.4 0.033-0.567 0-0.167 0.033-0.3 0.067-0.4s0.1-0.2 0.167-0.233c0.067-0.067 0.167-0.1 0.267-0.1 0.067 0 0.167 0.033 0.267 0.067s0.167 0.033 0.2 0.033c0.067 0 0.133-0.033 0.2-0.1s0.1-0.133 0.1-0.233c-0.033-0.1-0.1-0.2-0.233-0.3z"></path>
<path fill="#32aafc" d="M15.967 26.7c-0.067 0-0.133 0.033-0.2 0.067s-0.1 0.1-0.133 0.2c-0.067 0.133-0.167 0.233-0.267 0.3s-0.233 0.1-0.367 0.1c-0.1 0-0.2-0.033-0.3-0.067s-0.167-0.1-0.233-0.2-0.1-0.167-0.133-0.3c-0.033-0.1-0.067-0.233-0.033-0.367 0-0.3 0.067-0.533 0.2-0.7s0.3-0.267 0.533-0.267c0.133 0 0.267 0.033 0.367 0.1s0.2 0.167 0.267 0.3c0.033 0.067 0.1 0.133 0.133 0.167s0.1 0.033 0.167 0.033c0.1 0 0.167-0.033 0.233-0.1s0.1-0.133 0.1-0.233c0-0.1-0.033-0.167-0.1-0.267s-0.133-0.2-0.267-0.267c-0.1-0.1-0.233-0.167-0.4-0.2-0.167-0.067-0.333-0.1-0.533-0.1-0.3 0-0.567 0.067-0.8 0.2s-0.4 0.3-0.5 0.533c-0.1 0.233-0.167 0.5-0.167 0.8 0 0.433 0.133 0.8 0.367 1.067 0.267 0.267 0.6 0.4 1.067 0.4 0.2 0 0.4-0.033 0.567-0.1s0.3-0.133 0.433-0.233c0.1-0.1 0.2-0.2 0.233-0.3 0.067-0.1 0.067-0.2 0.067-0.3 0-0.067-0.033-0.133-0.1-0.233-0.033 0-0.1-0.033-0.2-0.033z"></path>
<path fill="#32aafc" d="M19.4 26.533c0.1-0.067 0.167-0.167 0.167-0.367s-0.033-0.4-0.167-0.567c-0.1-0.2-0.267-0.333-0.467-0.467s-0.433-0.167-0.733-0.167c-0.233 0-0.433 0.033-0.6 0.1s-0.333 0.167-0.467 0.3c-0.133 0.133-0.233 0.3-0.267 0.467-0.067 0.2-0.1 0.4-0.1 0.6 0 0.467 0.133 0.833 0.4 1.1s0.633 0.4 1.1 0.4c0.2 0 0.4-0.033 0.533-0.067s0.3-0.133 0.4-0.2c0.1-0.067 0.167-0.167 0.233-0.267s0.067-0.167 0.067-0.233c0-0.067-0.033-0.133-0.067-0.167s-0.1-0.067-0.167-0.067c-0.067 0-0.133 0-0.167 0.033-0.1 0.1-0.167 0.167-0.233 0.2s-0.133 0.1-0.2 0.133c-0.067 0.033-0.133 0.067-0.2 0.1s-0.167 0.033-0.233 0.033c-0.133 0-0.233-0.033-0.367-0.1-0.1-0.067-0.2-0.167-0.267-0.3s-0.1-0.267-0.1-0.433h1.433c0.2 0 0.333 0 0.467-0.067zM17.533 26.2c0.033-0.233 0.1-0.433 0.2-0.567 0.133-0.133 0.267-0.2 0.433-0.2 0.2 0 0.333 0.067 0.467 0.2 0.1 0.133 0.167 0.3 0.2 0.567h-1.3z"></path>
<path fill="#32aafc" d="M22.3 25.133c-0.2-0.1-0.4-0.167-0.633-0.167-0.2 0-0.367 0.033-0.5 0.133-0.133 0.067-0.3 0.2-0.433 0.367v-0.1c0-0.133-0.033-0.233-0.1-0.3s-0.133-0.1-0.267-0.1c-0.1 0-0.2 0.033-0.233 0.1-0.067 0.067-0.1 0.167-0.1 0.3v3.133c0 0.167 0.033 0.267 0.067 0.367 0.033 0.067 0.133 0.133 0.267 0.133 0.233 0 0.367-0.167 0.367-0.467v-1.1c0.133 0.167 0.267 0.3 0.4 0.367 0.133 0.1 0.3 0.133 0.533 0.133 0.167 0 0.333-0.033 0.5-0.1s0.267-0.167 0.4-0.3c0.1-0.133 0.2-0.3 0.267-0.467 0.067-0.2 0.1-0.4 0.1-0.633 0-0.3-0.067-0.567-0.167-0.8-0.1-0.2-0.267-0.367-0.467-0.5zM22.1 26.933c-0.067 0.133-0.133 0.233-0.233 0.3s-0.2 0.1-0.333 0.1c-0.2 0-0.367-0.067-0.5-0.233s-0.2-0.4-0.2-0.667c0-0.3 0.067-0.533 0.2-0.7s0.3-0.233 0.5-0.233c0.133 0 0.233 0.033 0.333 0.1s0.2 0.167 0.233 0.333 0.1 0.3 0.1 0.5c0 0.2-0.033 0.367-0.1 0.5z"></path>
<path fill="#32aafc" d="M24.933 27.333c-0.033 0-0.1 0-0.167 0.033-0.067 0-0.133 0.033-0.167 0.033-0.067 0-0.133-0.033-0.167-0.067s-0.067-0.1-0.067-0.133c0-0.067 0-0.133 0-0.267v-1.333h0.133c0.133 0 0.267-0.033 0.333-0.067s0.1-0.1 0.133-0.2c0-0.067-0.033-0.133-0.067-0.2-0.067-0.033-0.133-0.067-0.233-0.067h-0.267v-0.5c0-0.133 0-0.233-0.033-0.3 0-0.067-0.033-0.133-0.1-0.167-0.067-0.067-0.167-0.1-0.267-0.1-0.067 0-0.133 0-0.167 0.033-0.067 0.033-0.1 0.067-0.133 0.133-0.033 0.033-0.033 0.1-0.067 0.167 0 0.067 0 0.167 0 0.267v0.433h-0.067c-0.1 0-0.2 0.033-0.267 0.067s-0.1 0.1-0.1 0.2c0 0.067 0.033 0.133 0.067 0.2 0.067 0.067 0.133 0.067 0.233 0.067h0.1v1.4c0 0.233 0.033 0.4 0.067 0.533s0.1 0.233 0.233 0.333c0.133 0.067 0.3 0.1 0.533 0.1s0.433-0.033 0.567-0.1c0.133-0.067 0.2-0.167 0.2-0.267 0-0.067-0.033-0.133-0.067-0.167-0.067-0.067-0.133-0.067-0.2-0.067z"></path>
<path fill="#32aafc" d="M26.4 26.133h-0.833c-0.133 0-0.233 0.033-0.3 0.1s-0.1 0.133-0.1 0.233c0 0.1 0.033 0.167 0.1 0.233s0.167 0.1 0.3 0.1h0.833c0.133 0 0.233-0.033 0.3-0.1s0.1-0.133 0.1-0.233c0-0.1-0.033-0.167-0.1-0.233s-0.167-0.1-0.3-0.1z"></path>
<path fill="#32aafc" d="M27.633 24.967c-0.1 0-0.2 0.033-0.267 0.1s-0.1 0.167-0.1 0.333v2.1c0 0.133 0.033 0.267 0.1 0.333s0.167 0.1 0.267 0.1 0.2-0.033 0.267-0.1c0.067-0.067 0.1-0.2 0.1-0.333v-2.1c0-0.133-0.033-0.233-0.1-0.3-0.067-0.1-0.167-0.133-0.267-0.133z"></path>
<path fill="#32aafc" d="M27.633 23.9c-0.1 0-0.2 0.033-0.267 0.1s-0.1 0.167-0.1 0.267c0 0.1 0.033 0.2 0.1 0.267s0.167 0.1 0.267 0.1c0.1 0 0.167-0.033 0.267-0.1 0.067-0.067 0.1-0.167 0.1-0.267s-0.033-0.2-0.1-0.267c-0.067-0.067-0.167-0.1-0.267-0.1z"></path>
<path fill="#32aafc" d="M31.4 25.867c-0.067-0.167-0.167-0.333-0.3-0.467s-0.267-0.233-0.467-0.3c-0.167-0.067-0.367-0.1-0.6-0.1s-0.4 0.033-0.6 0.1c-0.167 0.067-0.333 0.167-0.467 0.3s-0.233 0.3-0.3 0.467c-0.067 0.2-0.1 0.4-0.1 0.6 0 0.233 0.033 0.433 0.1 0.6s0.167 0.333 0.3 0.467c0.133 0.133 0.267 0.233 0.467 0.3 0.167 0.067 0.367 0.1 0.6 0.1s0.433-0.033 0.6-0.1c0.167-0.067 0.333-0.167 0.467-0.3s0.233-0.3 0.3-0.467c0.067-0.167 0.1-0.4 0.1-0.6 0-0.233-0.033-0.433-0.1-0.6zM30.567 27.133c-0.133 0.167-0.3 0.233-0.533 0.233-0.133 0-0.267-0.033-0.367-0.1s-0.2-0.2-0.233-0.333c-0.067-0.133-0.1-0.3-0.1-0.5s0.033-0.367 0.1-0.5 0.133-0.267 0.267-0.333c0.1-0.067 0.233-0.1 0.367-0.1 0.233 0 0.4 0.1 0.533 0.233s0.2 0.4 0.2 0.7c-0.033 0.333-0.1 0.533-0.233 0.7z"></path>
<path fill="#32aafc" d="M12.033 10.633c-0.567 0-1.133 0-1.733 0v4.267h-1.733l2.533 2.967 2.533-2.967h-1.633l0.033-4.267z"></path>
<path fill="#32aafc" d="M17.667 12.367h1.733l-2.533-2.967-2.533 2.967h1.633v4.267c0.567 0 1.133 0 1.733 0l-0.033-4.267z"></path>
<path fill="#32aafc" d="M18.833 20.233c-0.367-0.333-0.733-0.667-1.067-1.067h-8.367c-2.233 0-4.033-1.667-4.033-3.733 0-1.9 1.533-3.433 3.5-3.7-0.033-0.2-0.033-0.367-0.033-0.567 0-2.633 2.333-4.8 5.167-4.8 2.167 0 4.033 1.233 4.8 2.967 0.533-0.533 1.267-0.867 2.1-0.867 1.6 0 2.867 1.2 2.867 2.667 0 0.6-0.233 1.2-0.6 1.633 1.633 0.233 2.9 1.567 2.9 3.167 0 0.333-0.067 0.667-0.167 0.967 0.3 0.267 0.6 0.567 0.867 0.867 0.267-0.567 0.433-1.167 0.433-1.8 0-1.567-0.933-3.033-2.467-3.767 0.1-0.333 0.167-0.667 0.167-1.033 0-2.067-1.8-3.733-4.033-3.733-0.6 0-1.167 0.133-1.733 0.367-1.1-1.467-3-2.467-5.133-2.467-3.4 0-6.167 2.467-6.333 5.6-2.033 0.667-3.467 2.467-3.467 4.5 0 2.633 2.3 4.8 5.167 4.8h9.467z"></path>
<path fill="#286f8f" d="M25.9 16.933c-0.5-0.433-1.067-0.8-1.7-1.1-0.6-0.3-1.233-0.467-1.867-0.467-0.267 0-0.567 0.033-0.833 0.1-1.833 0.433-3.1 1.667-4.233 3.1 0.167 0.2 0.3 0.4 0.467 0.567 0.333 0.4 0.667 0.733 1.067 1.067 0.467 0.4 1 0.767 1.6 1.067 0.633 0.3 1.3 0.467 1.967 0.467 0.6 0 1.167-0.133 1.767-0.4 1.3-0.6 2.3-1.533 3.133-2.667 0.033-0.067 0.067-0.1 0.1-0.167-0.2-0.267-0.4-0.5-0.6-0.733-0.267-0.3-0.533-0.567-0.867-0.833zM20.633 20.833c-0.533-0.267-1-0.567-1.5-0.967-0.333-0.3-0.667-0.633-1-1-0.067-0.1-0.133-0.167-0.2-0.267 0.667-0.8 1.4-1.567 2.333-2.1-0.533 0.5-0.867 1.2-0.867 2 0 1.033 0.567 1.933 1.433 2.4-0.067 0-0.133-0.033-0.2-0.067zM26.767 18.533c-0.833 1.067-1.733 1.833-2.767 2.3 0.8-0.5 1.3-1.367 1.3-2.367 0-0.767-0.333-1.467-0.833-1.967 0.367 0.233 0.733 0.467 1.1 0.767 0.267 0.233 0.567 0.5 0.833 0.8 0.133 0.2 0.267 0.333 0.367 0.467z"></path>
</svg>
