<!-- Generated by IcoMoon.io -->
<svg version="1.1" xmlns="http://www.w3.org/2000/svg" width="32" height="32" viewBox="0 0 32 32">
<title>intercept-io-text</title>
<path fill="#39f" d="M1.067 12.733c-0.1 0-0.2-0.033-0.267-0.1s-0.133-0.167-0.133-0.267c0-0.1 0.033-0.2 0.1-0.267 0.1-0.067 0.2-0.1 0.3-0.1s0.167 0.033 0.267 0.1c0.067 0.067 0.1 0.167 0.1 0.267s-0.033 0.2-0.1 0.267c-0.1 0.067-0.167 0.1-0.267 0.1zM1.433 13.5v2.133c0 0.133-0.033 0.267-0.1 0.333s-0.167 0.1-0.267 0.1c-0.1 0-0.2-0.033-0.267-0.133s-0.133-0.133-0.133-0.3v-2.133c0-0.133 0.033-0.267 0.1-0.333s0.167-0.1 0.267-0.1c0.1 0 0.2 0.033 0.267 0.1 0.1 0.1 0.133 0.2 0.133 0.333z"></path>
<path fill="#39f" d="M2.867 13.5v0.1c0.133-0.167 0.267-0.3 0.433-0.367s0.333-0.133 0.533-0.133c0.2 0 0.367 0.033 0.533 0.133s0.267 0.2 0.333 0.367c0.033 0.1 0.067 0.2 0.1 0.3 0 0.1 0.033 0.233 0.033 0.4v1.4c0 0.133-0.033 0.267-0.1 0.333s-0.167 0.1-0.267 0.1c-0.1 0-0.2-0.033-0.267-0.133-0.067-0.067-0.1-0.2-0.1-0.333v-1.233c0-0.233-0.033-0.433-0.1-0.567s-0.2-0.2-0.4-0.2c-0.133 0-0.267 0.033-0.367 0.133-0.1 0.067-0.2 0.2-0.233 0.333-0.033 0.1-0.067 0.333-0.067 0.633v0.933c0 0.167-0.033 0.267-0.1 0.333s-0.167 0.1-0.267 0.1c-0.1 0-0.2-0.033-0.267-0.133-0.067-0.067-0.1-0.2-0.1-0.333v-2.133c0-0.133 0.033-0.233 0.1-0.333 0.067-0.067 0.133-0.1 0.267-0.1 0.067 0 0.133 0 0.167 0.033 0.067 0.033 0.1 0.067 0.133 0.133 0 0.067 0 0.133 0 0.233z"></path>
<path fill="#39f" d="M5.6 13.133h0.067v-0.433c0-0.133 0-0.2 0-0.267s0.033-0.133 0.067-0.167c0.033-0.067 0.067-0.1 0.133-0.133s0.1-0.033 0.167-0.033 0.167 0.033 0.267 0.1c0.067 0.033 0.067 0.1 0.1 0.167 0 0.067 0.033 0.167 0.033 0.3v0.5h0.267c0.1 0 0.2 0.033 0.233 0.067 0.067 0.033 0.067 0.1 0.067 0.2s-0.033 0.167-0.133 0.2c-0.067 0.033-0.2 0.067-0.333 0.067h-0.133v1.367c0 0.1 0 0.2 0 0.267s0.033 0.1 0.067 0.167c0.033 0.033 0.1 0.067 0.167 0.067 0.033 0 0.1 0 0.167-0.033s0.133-0.033 0.167-0.033c0.067 0 0.1 0.033 0.167 0.067 0.033 0.033 0.067 0.1 0.067 0.167 0 0.133-0.067 0.2-0.2 0.267s-0.333 0.1-0.567 0.1c-0.233 0-0.4-0.033-0.533-0.133-0.133-0.067-0.2-0.2-0.233-0.333s-0.067-0.333-0.067-0.567v-1.4h-0.1c-0.1 0-0.2-0.033-0.233-0.067-0.067-0.067-0.1-0.1-0.1-0.2s0.033-0.133 0.1-0.2c0.133-0.033 0.233-0.067 0.333-0.067z"></path>
<path fill="#39f" d="M9.633 14.767h-1.467c0 0.167 0.033 0.333 0.1 0.433 0.067 0.133 0.167 0.233 0.267 0.3s0.233 0.1 0.367 0.1c0.1 0 0.167 0 0.233-0.033s0.133-0.067 0.2-0.1c0.067-0.033 0.133-0.1 0.2-0.133 0.067-0.067 0.133-0.133 0.233-0.2 0.033-0.033 0.1-0.033 0.167-0.033s0.133 0.033 0.2 0.067c0.033 0.033 0.067 0.1 0.067 0.167s-0.033 0.133-0.067 0.233c-0.067 0.1-0.133 0.167-0.233 0.267-0.1 0.067-0.233 0.167-0.4 0.2-0.167 0.067-0.333 0.067-0.567 0.067-0.467 0-0.833-0.133-1.1-0.4s-0.4-0.633-0.4-1.1c0-0.233 0.033-0.433 0.1-0.6 0.067-0.2 0.167-0.333 0.3-0.5 0.133-0.133 0.267-0.233 0.467-0.3s0.4-0.1 0.6-0.1c0.3 0 0.533 0.067 0.733 0.2s0.367 0.267 0.467 0.467c0.1 0.2 0.167 0.4 0.167 0.6s-0.067 0.3-0.167 0.367c-0.133 0-0.3 0.033-0.467 0.033zM8.167 14.333h1.333c-0.033-0.267-0.1-0.433-0.2-0.567-0.133-0.133-0.267-0.2-0.467-0.2s-0.333 0.067-0.467 0.2c-0.1 0.133-0.167 0.333-0.2 0.567z"></path>
<path fill="#39f" d="M11.6 15.033v0.633c0 0.167-0.033 0.267-0.1 0.333s-0.167 0.1-0.267 0.1c-0.1 0-0.2-0.033-0.267-0.1s-0.1-0.2-0.1-0.333v-2.067c0-0.333 0.133-0.5 0.367-0.5 0.133 0 0.2 0.033 0.267 0.133 0.067 0.067 0.1 0.2 0.1 0.333 0.1-0.167 0.167-0.267 0.267-0.333s0.233-0.133 0.367-0.133c0.167 0 0.3 0.033 0.467 0.133 0.133 0.067 0.233 0.167 0.233 0.3 0 0.1-0.033 0.167-0.1 0.233s-0.133 0.1-0.2 0.1c-0.033 0-0.1-0.033-0.2-0.067s-0.2-0.067-0.267-0.067c-0.1 0-0.2 0.033-0.267 0.1s-0.133 0.133-0.167 0.267c-0.033 0.1-0.067 0.233-0.067 0.4-0.067 0.1-0.067 0.3-0.067 0.533z"></path>
<path fill="#39f" d="M15.833 15.167c0 0.1-0.033 0.2-0.067 0.3-0.067 0.1-0.133 0.2-0.267 0.3-0.1 0.1-0.267 0.167-0.433 0.233s-0.367 0.1-0.567 0.1c-0.467 0-0.833-0.133-1.067-0.4-0.267-0.267-0.4-0.633-0.4-1.067 0-0.3 0.067-0.567 0.167-0.8 0.133-0.233 0.3-0.4 0.5-0.533 0.233-0.133 0.5-0.2 0.8-0.2 0.2 0 0.367 0.033 0.533 0.1s0.3 0.133 0.4 0.233c0.1 0.1 0.2 0.2 0.267 0.3s0.1 0.2 0.1 0.267c0 0.1-0.033 0.167-0.1 0.233s-0.133 0.1-0.233 0.1c-0.067 0-0.1 0-0.167-0.033-0.033-0.033-0.1-0.067-0.133-0.167-0.1-0.133-0.2-0.233-0.3-0.3s-0.233-0.1-0.367-0.1c-0.233 0-0.4 0.1-0.533 0.267s-0.2 0.4-0.2 0.7c0 0.133 0.033 0.267 0.067 0.4s0.1 0.233 0.133 0.3c0.067 0.067 0.133 0.133 0.233 0.2 0.1 0.033 0.2 0.067 0.3 0.067 0.133 0 0.267-0.033 0.367-0.1s0.2-0.167 0.267-0.3c0.033-0.1 0.1-0.133 0.133-0.2 0.067-0.033 0.133-0.067 0.2-0.067 0.1 0 0.167 0.033 0.233 0.1 0.1-0.067 0.133 0 0.133 0.067z"></path>
<path fill="#39f" d="M18.533 14.767h-1.467c0 0.167 0.033 0.333 0.1 0.433 0.067 0.133 0.167 0.233 0.267 0.3s0.233 0.1 0.367 0.1c0.1 0 0.167 0 0.233-0.033s0.133-0.067 0.2-0.1c0.067-0.033 0.133-0.1 0.2-0.133 0.067-0.067 0.133-0.133 0.233-0.2 0.033-0.033 0.1-0.033 0.167-0.033s0.133 0.033 0.2 0.067c0.033 0.033 0.067 0.1 0.067 0.167s-0.033 0.133-0.067 0.233c-0.067 0.1-0.133 0.167-0.233 0.267-0.1 0.067-0.233 0.167-0.4 0.2-0.167 0.067-0.333 0.067-0.567 0.067-0.467 0-0.833-0.133-1.1-0.4s-0.4-0.633-0.4-1.1c0-0.233 0.033-0.433 0.1-0.6 0.067-0.2 0.167-0.333 0.3-0.5 0.133-0.133 0.267-0.233 0.467-0.3s0.4-0.1 0.6-0.1c0.3 0 0.533 0.067 0.733 0.2s0.367 0.267 0.467 0.467c0.1 0.2 0.167 0.4 0.167 0.6s-0.067 0.3-0.167 0.367c-0.1 0-0.267 0.033-0.467 0.033zM17.1 14.333h1.333c-0.033-0.267-0.1-0.433-0.2-0.567-0.133-0.133-0.267-0.2-0.467-0.2s-0.333 0.067-0.467 0.2c-0.1 0.133-0.167 0.333-0.2 0.567z"></path>
<path fill="#39f" d="M20.4 13.5v0.1c0.133-0.167 0.3-0.3 0.433-0.367 0.167-0.067 0.333-0.133 0.5-0.133 0.233 0 0.433 0.067 0.633 0.167 0.2 0.133 0.333 0.3 0.467 0.533 0.1 0.233 0.167 0.5 0.167 0.8 0 0.233-0.033 0.433-0.1 0.633s-0.167 0.367-0.267 0.467c-0.1 0.133-0.233 0.233-0.4 0.3s-0.333 0.1-0.5 0.1c-0.2 0-0.4-0.033-0.533-0.133s-0.267-0.2-0.4-0.367v1.133c0 0.333-0.133 0.5-0.367 0.5-0.133 0-0.233-0.033-0.267-0.133s-0.067-0.2-0.067-0.367v-3.2c0-0.133 0.033-0.233 0.1-0.333 0.067-0.067 0.133-0.1 0.267-0.1 0.1 0 0.2 0.033 0.267 0.1 0.033 0.067 0.067 0.167 0.067 0.3zM21.867 14.567c0-0.2-0.033-0.367-0.1-0.5s-0.133-0.233-0.233-0.333c-0.1-0.067-0.233-0.1-0.367-0.1-0.2 0-0.367 0.067-0.533 0.233-0.133 0.167-0.2 0.4-0.2 0.7s0.067 0.533 0.2 0.7c0.133 0.167 0.3 0.233 0.533 0.233 0.133 0 0.233-0.033 0.333-0.1s0.2-0.167 0.267-0.333c0.067-0.133 0.1-0.3 0.1-0.5z"></path>
<path fill="#39f" d="M23.233 13.133h0.1v-0.433c0-0.133 0-0.2 0-0.267s0.033-0.133 0.067-0.167c0.033-0.067 0.067-0.1 0.133-0.133s0.1-0.033 0.167-0.033 0.167 0.033 0.267 0.1c0.067 0.033 0.067 0.1 0.1 0.167 0 0.067 0.033 0.167 0.033 0.3v0.5h0.233c0.1 0 0.2 0.033 0.233 0.067 0.067 0.033 0.067 0.1 0.067 0.2s-0.033 0.167-0.133 0.2c-0.067 0.033-0.2 0.067-0.333 0.067h-0.133v1.367c0 0.1 0 0.2 0 0.267s0.033 0.1 0.067 0.167c0.033 0.033 0.1 0.067 0.167 0.067 0.033 0 0.1 0 0.167-0.033 0.067 0 0.133-0.033 0.167-0.033 0.067 0 0.1 0.033 0.167 0.067 0.033 0.033 0.067 0.1 0.067 0.167 0 0.133-0.067 0.2-0.2 0.267s-0.333 0.1-0.567 0.1c-0.233 0-0.4-0.033-0.533-0.133s-0.2-0.2-0.233-0.333c0.033-0.1 0.033-0.3 0.033-0.533v-1.433h-0.1c-0.1 0-0.2-0.033-0.233-0.067-0.067-0.067-0.1-0.1-0.1-0.2s0.033-0.133 0.1-0.2c0.033-0.033 0.133-0.067 0.233-0.067z"></path>
<path fill="#39f" d="M26.167 14.9h-0.867c-0.133 0-0.233-0.033-0.3-0.1s-0.1-0.133-0.1-0.233c0-0.1 0.033-0.167 0.1-0.233s0.167-0.1 0.3-0.1h0.867c0.133 0 0.233 0.033 0.3 0.1s0.1 0.133 0.1 0.233c0 0.1-0.033 0.167-0.1 0.233s-0.167 0.1-0.3 0.1z"></path>
<path fill="#39f" d="M27.4 12.733c-0.1 0-0.2-0.033-0.267-0.1s-0.1-0.167-0.1-0.267c0-0.1 0.033-0.2 0.1-0.267s0.167-0.1 0.267-0.1c0.1 0 0.167 0.033 0.267 0.1 0.067 0.067 0.1 0.167 0.1 0.267s-0.033 0.2-0.1 0.267c-0.067 0.067-0.167 0.1-0.267 0.1zM27.767 13.5v2.133c0 0.133-0.033 0.267-0.1 0.333s-0.167 0.1-0.267 0.1c-0.1 0-0.2-0.033-0.267-0.133-0.067-0.067-0.1-0.2-0.1-0.333v-2.133c0-0.133 0.033-0.267 0.1-0.333s0.167-0.1 0.267-0.1c0.1 0 0.2 0.033 0.267 0.1 0.067 0.133 0.1 0.233 0.1 0.367z"></path>
<path fill="#39f" d="M31.333 14.6c0 0.233-0.033 0.433-0.1 0.6-0.067 0.2-0.167 0.333-0.3 0.467s-0.3 0.233-0.467 0.3c-0.167 0.067-0.4 0.1-0.6 0.1-0.233 0-0.433-0.033-0.6-0.1s-0.333-0.167-0.467-0.3c-0.133-0.133-0.233-0.3-0.3-0.467-0.067-0.2-0.1-0.4-0.1-0.6 0-0.233 0.033-0.433 0.1-0.633s0.167-0.333 0.3-0.467c0.133-0.133 0.3-0.233 0.467-0.3 0.2-0.067 0.4-0.1 0.6-0.1 0.233 0 0.433 0.033 0.6 0.1 0.2 0.067 0.333 0.167 0.467 0.3s0.233 0.3 0.3 0.467c0.067 0.2 0.1 0.4 0.1 0.633zM30.6 14.6c0-0.3-0.067-0.533-0.2-0.7s-0.3-0.267-0.533-0.267c-0.133 0-0.267 0.033-0.4 0.1-0.1 0.067-0.2 0.2-0.267 0.333s-0.1 0.333-0.1 0.5c0 0.2 0.033 0.367 0.1 0.5s0.133 0.267 0.267 0.333c0.1 0.067 0.233 0.1 0.4 0.1 0.233 0 0.4-0.1 0.533-0.267 0.133-0.1 0.2-0.333 0.2-0.633z"></path>
</svg>
