<!-- Generated by IcoMoon.io -->
<svg version="1.1" xmlns="http://www.w3.org/2000/svg" width="32" height="32" viewBox="0 0 32 32">
<title>io</title>
<path fill="#d029a4" d="M21.667 8.467c-1.767-0.833-3.6-1.333-5.467-1.333-0.8 0-1.633 0.1-2.467 0.3-5.467 1.3-9.167 4.933-12.5 9.2 2.533 3.367 5.467 6.133 9.167 7.933 1.933 0.933 3.833 1.433 5.767 1.433 1.733 0 3.467-0.4 5.233-1.2 3.833-1.767 6.767-4.533 9.3-7.833 0.133-0.167 0.233-0.333 0.333-0.533-2.6-3.333-5.533-6.167-9.367-7.967zM11.067 23.267c0 0 0 0 0 0-0.833-0.4-1.667-0.9-2.467-1.433-0.767-0.5-1.5-1.1-2.233-1.733-0.7-0.6-1.367-1.3-2.067-2.033-0.4-0.433-0.8-0.9-1.2-1.4 0.633-0.767 1.233-1.467 1.8-2.067 0.9-0.967 1.8-1.8 2.7-2.5 1.4-1.1 2.8-1.933 4.3-2.533v0c-1.233 0.7-2.3 1.7-3.033 2.9-0.367 0.6-0.667 1.267-0.833 1.933-0.2 0.7-0.3 1.433-0.3 2.167 0 0.933 0.167 1.867 0.5 2.767 0.333 0.867 0.8 1.633 1.4 2.367 0.6 0.7 1.3 1.3 2.1 1.767 0.267 0.167 0.567 0.333 0.867 0.467-0.533-0.2-1.033-0.433-1.533-0.667zM27.633 18.333c-0.667 0.733-1.367 1.4-2.067 2-0.733 0.633-1.5 1.2-2.267 1.733-0.8 0.533-1.667 1-2.533 1.4-0.6 0.267-1.167 0.5-1.767 0.667 1.2-0.433 2.267-1.133 3.167-2.067 1.433-1.5 2.233-3.467 2.233-5.5 0-1.567-0.467-3.1-1.367-4.433-0.433-0.633-0.933-1.2-1.533-1.7s-1.267-0.9-1.967-1.233c0.5 0.167 0.967 0.367 1.467 0.6 0 0 0 0 0 0 0.867 0.4 1.7 0.9 2.533 1.433 0.767 0.5 1.533 1.1 2.267 1.767 0.7 0.6 1.4 1.3 2.067 2.033 0.433 0.467 0.833 0.967 1.267 1.467-0.467 0.667-0.967 1.267-1.5 1.833z"></path>
</svg>
