<!-- Generated by IcoMoon.io -->
<svg version="1.1" xmlns="http://www.w3.org/2000/svg" width="32" height="32" viewBox="0 0 32 32">
<title>logo-whole</title>
<path fill="#36abfc" d="M29.5 15.867c0-1.333-0.467-2.633-1.3-3.7-0.4-0.5-0.9-0.967-1.433-1.333-0.4-0.3-0.867-0.533-1.333-0.7-0.033-0.9-0.233-1.733-0.6-2.533-0.4-0.833-0.933-1.567-1.633-2.2s-1.5-1.133-2.367-1.467c-0.933-0.367-1.9-0.533-2.9-0.533-1.333 0-2.633 0.333-3.767 0.967-0.733 0.4-1.367 0.9-1.933 1.5 0-0.367 0-0.7 0-1.067 0-0.333-0.267-0.633-0.633-0.633 0 0 0 0 0 0-0.333 0-0.633 0.267-0.633 0.633 0 0.433 0 0.833 0 1.267-0.367-0.1-0.767-0.133-1.167-0.133-1.267 0-2.433 0.467-3.333 1.3-0.433 0.4-0.8 0.9-1.033 1.4-0.267 0.567-0.367 1.133-0.367 1.733 0 0.3 0.033 0.567 0.1 0.867-1.067 0.333-2 0.933-2.733 1.767-0.433 0.5-0.8 1.067-1.033 1.667-0.267 0.6-0.4 1.267-0.4 1.933 0 0.767 0.167 1.533 0.5 2.233 0.3 0.667 0.767 1.267 1.333 1.8 1.133 1.033 2.667 1.633 4.267 1.633 0.033 0 0.033 0 0.067 0l10.467-0.033c-1-0.733-1.867-1.633-2.633-2.667 1.5-1.933 3.167-3.567 5.6-4.133 0.367-0.1 0.733-0.133 1.1-0.133 0.833 0 1.667 0.233 2.467 0.6 1.7 0.8 3.033 2.067 4.167 3.567 0.267-0.333 0.467-0.7 0.633-1.1 0.367-0.833 0.533-1.667 0.533-2.5z"></path>
<path fill="#fff" d="M26.033 17.9c-0.7-0.6-1.4-1.067-2.167-1.433s-1.467-0.533-2.167-0.533c-0.333 0-0.633 0.033-0.967 0.1 0 0 0 0 0 0-1.033 0.233-2 0.7-2.9 1.433-0.667 0.533-1.3 1.167-2.033 2.067 0.467 0.6 0.967 1.1 1.467 1.567 0.667 0.6 1.367 1.067 2.1 1.433 0 0 0 0 0 0 0.767 0.367 1.533 0.567 2.3 0.567 0.7 0 1.4-0.167 2.067-0.467 0.767-0.367 1.467-0.8 2.167-1.4 0.567-0.5 1.1-1.067 1.633-1.733-0.5-0.633-1-1.167-1.5-1.6z"></path>
<path fill="#286f8f" d="M24.167 15.867c-0.8-0.367-1.633-0.6-2.467-0.6-0.367 0-0.733 0.033-1.1 0.133-2.433 0.567-4.1 2.2-5.6 4.133 0.767 1.033 1.633 1.933 2.633 2.667 0.467 0.333 0.967 0.633 1.467 0.9 0.867 0.433 1.733 0.633 2.6 0.633 0.767 0 1.567-0.167 2.333-0.533 1.733-0.8 3.033-2.033 4.167-3.533 0.067-0.067 0.1-0.167 0.133-0.233 0 0 0 0 0-0.033-1.133-1.467-2.467-2.733-4.167-3.533zM25.9 21.2c-0.667 0.6-1.367 1.033-2.167 1.4-0.7 0.3-1.367 0.467-2.067 0.467-0.767 0-1.533-0.2-2.3-0.567 0 0 0 0 0 0-0.767-0.367-1.433-0.833-2.1-1.433-0.5-0.433-1-0.967-1.467-1.567 0.7-0.867 1.367-1.533 2.033-2.067 0.9-0.733 1.867-1.2 2.9-1.433 0 0 0 0 0 0 0.3-0.067 0.633-0.1 0.967-0.1 0.7 0 1.433 0.167 2.167 0.533 0.767 0.367 1.467 0.833 2.167 1.433 0.5 0.467 1 0.967 1.5 1.567-0.533 0.7-1.067 1.3-1.633 1.767z"></path>
<path fill="#286f8f" d="M21.767 15.933c-1.967 0-3.567 1.6-3.567 3.6 0 1.967 1.6 3.6 3.567 3.6s3.567-1.633 3.567-3.633-1.6-3.567-3.567-3.567z"></path>
<path fill="#39f" d="M3.033 25.8c-0.1 0-0.167-0.033-0.233-0.1-0.1-0.067-0.133-0.133-0.133-0.233s0.033-0.167 0.1-0.233c0.067-0.067 0.167-0.1 0.233-0.1 0.1 0 0.167 0.033 0.233 0.1s0.1 0.133 0.1 0.267c0 0.1-0.033 0.2-0.1 0.267-0.033 0-0.1 0.033-0.2 0.033zM3.367 26.533v2.033c0 0.133-0.033 0.233-0.1 0.333-0.067 0.067-0.167 0.1-0.267 0.1s-0.2-0.033-0.233-0.1c-0.067-0.133-0.1-0.233-0.1-0.367v-2c0-0.133 0.033-0.233 0.1-0.3s0.133-0.1 0.233-0.1c0.1 0 0.2 0.033 0.267 0.1s0.1 0.167 0.1 0.3z"></path>
<path fill="#39f" d="M4.733 26.5v0.1c0.133-0.167 0.267-0.267 0.4-0.367 0.133-0.067 0.3-0.1 0.5-0.1s0.333 0.033 0.5 0.133c0.133 0.067 0.267 0.2 0.333 0.333 0.033 0.1 0.067 0.167 0.1 0.267 0 0.1 0.033 0.233 0.033 0.367v1.3c0 0.133-0.033 0.233-0.1 0.333-0.067 0.067-0.133 0.1-0.233 0.1s-0.2-0.033-0.267-0.1c-0.067-0.067-0.1-0.167-0.1-0.3v-1.167c0-0.233-0.033-0.4-0.1-0.533s-0.2-0.167-0.367-0.167c-0.133 0-0.233 0.033-0.333 0.1s-0.167 0.167-0.233 0.3c-0.033 0.1-0.067 0.3-0.067 0.6v0.867c0 0.133-0.033 0.233-0.1 0.333-0.067 0.067-0.167 0.1-0.267 0.1s-0.2-0.033-0.233-0.1c-0.067-0.067-0.1-0.167-0.1-0.3v-2.033c0-0.133 0.033-0.233 0.1-0.3s0.133-0.1 0.233-0.1c0.067 0 0.133 0 0.167 0.033s0.1 0.067 0.133 0.133c0 0.033 0 0.1 0 0.167z"></path>
<path fill="#39f" d="M7.3 26.167h0.067v-0.433c0-0.1 0-0.2 0-0.267s0.033-0.133 0.033-0.167c0.033-0.033 0.067-0.1 0.133-0.1 0.067-0.033 0.1-0.033 0.167-0.033 0.1 0 0.167 0.033 0.233 0.1 0.033 0.033 0.067 0.1 0.1 0.167 0 0.067 0.033 0.167 0.033 0.267v0.467h0.267c0.1 0 0.167 0.033 0.233 0.067s0.067 0.1 0.067 0.167c0 0.1-0.033 0.167-0.1 0.2s-0.167 0.067-0.333 0.067h-0.133v1.3c0 0.1 0 0.2 0 0.267s0.033 0.1 0.067 0.133c0.033 0.033 0.1 0.067 0.167 0.067 0.033 0 0.1 0 0.167-0.033 0.067 0 0.133-0.033 0.167-0.033 0.067 0 0.1 0.033 0.167 0.067 0.033 0.033 0.067 0.1 0.067 0.167 0 0.1-0.067 0.2-0.2 0.267s-0.3 0.1-0.533 0.1c-0.233 0-0.4-0.033-0.5-0.1s-0.2-0.167-0.233-0.3c-0.033-0.133-0.067-0.3-0.067-0.533v-1.333h-0.1c-0.1 0-0.167-0.033-0.233-0.067 0-0.067 0-0.133 0-0.2s0.033-0.133 0.067-0.167c0.067-0.067 0.133-0.1 0.233-0.1z"></path>
<path fill="#39f" d="M11.067 27.7h-1.367c0 0.167 0.033 0.3 0.1 0.433s0.133 0.2 0.233 0.267c0.1 0.067 0.233 0.1 0.333 0.1s0.167 0 0.233-0.033c0.067-0.033 0.133-0.067 0.2-0.1s0.133-0.1 0.167-0.133c0.067-0.033 0.133-0.1 0.2-0.2 0.033-0.033 0.1-0.033 0.167-0.033s0.133 0.033 0.167 0.067c0.033 0.033 0.067 0.1 0.067 0.167s-0.033 0.133-0.067 0.233c-0.033 0.1-0.133 0.167-0.233 0.233s-0.233 0.133-0.367 0.2c-0.167 0.067-0.333 0.067-0.533 0.067-0.433 0-0.8-0.133-1.033-0.4-0.2-0.233-0.333-0.6-0.333-1.033 0-0.2 0.033-0.4 0.1-0.567s0.167-0.333 0.267-0.467c0.133-0.133 0.267-0.233 0.433-0.3s0.367-0.1 0.567-0.1c0.267 0 0.5 0.067 0.7 0.167s0.333 0.267 0.433 0.433c0.1 0.167 0.133 0.367 0.133 0.567 0 0.167-0.067 0.3-0.167 0.333-0.067 0.1-0.2 0.1-0.4 0.1zM9.7 27.3h1.267c-0.033-0.233-0.067-0.433-0.2-0.533-0.1-0.1-0.233-0.167-0.433-0.167-0.167 0-0.333 0.067-0.433 0.167-0.1 0.133-0.167 0.3-0.2 0.533z"></path>
<path fill="#39f" d="M12.933 27.967v0.6c0 0.133-0.033 0.233-0.1 0.333-0.067 0.067-0.167 0.1-0.267 0.1s-0.2-0.033-0.233-0.1c-0.067-0.067-0.1-0.167-0.1-0.333v-1.933c0-0.3 0.1-0.467 0.333-0.467 0.1 0 0.2 0.033 0.267 0.1s0.067 0.167 0.1 0.333c0.1-0.133 0.167-0.267 0.267-0.333s0.2-0.1 0.367-0.1c0.133 0 0.3 0.033 0.433 0.1s0.2 0.167 0.2 0.3c0 0.1-0.033 0.167-0.1 0.2-0.067 0.067-0.133 0.067-0.2 0.067-0.033 0-0.1 0-0.2-0.033s-0.2-0.033-0.267-0.033c-0.1 0-0.2 0.033-0.267 0.067-0.067 0.067-0.1 0.133-0.167 0.233-0.033 0.1-0.067 0.233-0.067 0.367s0 0.3 0 0.533z"></path>
<path fill="#39f" d="M16.9 28.1c0 0.1-0.033 0.167-0.067 0.267-0.067 0.1-0.133 0.2-0.233 0.267-0.1 0.1-0.233 0.167-0.4 0.2-0.167 0.067-0.333 0.067-0.533 0.067-0.433 0-0.767-0.133-1-0.367-0.233-0.267-0.367-0.6-0.367-1 0-0.3 0.067-0.533 0.167-0.767s0.267-0.4 0.467-0.5c0.2-0.133 0.467-0.167 0.767-0.167 0.167 0 0.333 0.033 0.5 0.067 0.167 0.067 0.267 0.133 0.4 0.2 0.1 0.1 0.2 0.167 0.233 0.267 0.067 0.1 0.067 0.167 0.067 0.267s-0.033 0.167-0.1 0.2c-0.067 0.067-0.133 0.1-0.233 0.1-0.067 0-0.1 0-0.133-0.033s-0.067-0.067-0.133-0.133c-0.1-0.133-0.167-0.233-0.267-0.3-0.1-0.033-0.233-0.067-0.367-0.067-0.2 0-0.367 0.067-0.5 0.233s-0.2 0.367-0.2 0.667c0 0.133 0 0.267 0.033 0.367s0.067 0.2 0.133 0.267c0.067 0.067 0.133 0.133 0.233 0.167s0.167 0.067 0.3 0.067c0.133 0 0.267-0.033 0.367-0.1s0.2-0.167 0.267-0.3c0.033-0.067 0.1-0.133 0.133-0.2 0.033-0.033 0.1-0.067 0.167-0.067 0.1 0 0.167 0.033 0.2 0.1 0.067 0.1 0.1 0.167 0.1 0.233z"></path>
<path fill="#39f" d="M19.467 27.7h-1.367c0 0.167 0.033 0.3 0.1 0.433s0.133 0.2 0.233 0.267c0.1 0.067 0.233 0.1 0.333 0.1s0.167 0 0.233-0.033c0.067-0.033 0.133-0.067 0.2-0.1s0.133-0.1 0.167-0.133c0.067-0.033 0.133-0.1 0.2-0.2 0.033-0.033 0.1-0.033 0.167-0.033s0.133 0.033 0.167 0.067c0.033 0.033 0.067 0.1 0.067 0.167s-0.033 0.133-0.067 0.233c-0.033 0.1-0.133 0.167-0.233 0.233s-0.233 0.133-0.367 0.2c-0.167 0.067-0.333 0.067-0.533 0.067-0.433 0-0.8-0.133-1.033-0.4s-0.367-0.6-0.367-1.033c0-0.2 0.033-0.4 0.1-0.567s0.167-0.333 0.267-0.467c0.133-0.133 0.267-0.233 0.433-0.3s0.367-0.1 0.567-0.1c0.267 0 0.5 0.067 0.7 0.167s0.333 0.267 0.433 0.433c0.1 0.167 0.133 0.367 0.133 0.567 0 0.167-0.067 0.3-0.167 0.333-0.033 0.1-0.167 0.1-0.367 0.1zM18.1 27.3h1.267c-0.033-0.233-0.067-0.433-0.2-0.533-0.1-0.133-0.267-0.167-0.433-0.167s-0.333 0.067-0.433 0.167c-0.1 0.133-0.167 0.3-0.2 0.533z"></path>
<path fill="#39f" d="M21.2 26.5v0.1c0.133-0.167 0.267-0.267 0.4-0.367 0.133-0.067 0.3-0.1 0.467-0.1 0.2 0 0.4 0.067 0.6 0.167 0.167 0.1 0.333 0.267 0.433 0.5 0.1 0.2 0.167 0.467 0.167 0.767 0 0.2-0.033 0.4-0.1 0.6-0.067 0.167-0.133 0.333-0.233 0.467s-0.233 0.2-0.367 0.267c-0.133 0.067-0.3 0.1-0.467 0.1-0.2 0-0.367-0.033-0.5-0.133-0.133-0.067-0.267-0.2-0.4-0.367v1.033c0 0.3-0.1 0.467-0.333 0.467-0.133 0-0.233-0.033-0.267-0.133-0.033-0.067-0.067-0.2-0.067-0.333v-3c0-0.133 0.033-0.233 0.1-0.3s0.133-0.1 0.233-0.1c0.1 0 0.167 0.033 0.233 0.1s0.1 0.167 0.1 0.267zM22.567 27.533c0-0.2-0.033-0.333-0.1-0.467s-0.133-0.233-0.233-0.3c-0.1-0.067-0.2-0.1-0.333-0.1-0.2 0-0.367 0.067-0.5 0.233s-0.2 0.367-0.2 0.667c0 0.267 0.067 0.5 0.2 0.633 0.133 0.167 0.3 0.233 0.5 0.233 0.1 0 0.233-0.033 0.333-0.1s0.167-0.167 0.233-0.3c0.1-0.167 0.1-0.3 0.1-0.5z"></path>
<path fill="#39f" d="M23.9 26.167h0.067v-0.433c0-0.1 0-0.2 0-0.267s0.033-0.133 0.033-0.167c0.033-0.033 0.067-0.1 0.133-0.1 0.067-0.033 0.1-0.033 0.167-0.033 0.1 0 0.167 0.033 0.233 0.1 0.033 0.033 0.067 0.1 0.1 0.167 0 0.067 0.033 0.167 0.033 0.267v0.467h0.267c0.1 0 0.167 0.033 0.233 0.067s0.067 0.1 0.067 0.167c0 0.1-0.033 0.167-0.1 0.2s-0.167 0.067-0.333 0.067h-0.133v1.3c0 0.1 0 0.2 0 0.267s0.033 0.1 0.067 0.133c0.033 0.033 0.1 0.067 0.167 0.067 0.033 0 0.1 0 0.167-0.033 0.067 0 0.133-0.033 0.167-0.033 0.067 0 0.1 0.033 0.167 0.067 0.033 0.033 0.067 0.1 0.067 0.167 0 0.1-0.067 0.2-0.2 0.267s-0.3 0.1-0.533 0.1c-0.233 0-0.4-0.033-0.5-0.1s-0.2-0.167-0.233-0.3c-0.033-0.133-0.067-0.3-0.067-0.533v-1.333h-0.1c-0.1 0-0.167-0.033-0.233-0.067s-0.067-0.1-0.067-0.167c0-0.067 0.033-0.133 0.067-0.167 0.1-0.1 0.167-0.133 0.3-0.133z"></path>
<path fill="#39f" d="M26.633 27.833h-0.8c-0.133 0-0.2-0.033-0.267-0.1s-0.1-0.133-0.1-0.233c0-0.1 0.033-0.167 0.1-0.233s0.167-0.1 0.267-0.1h0.8c0.133 0 0.233 0.033 0.267 0.1 0.067 0.067 0.1 0.133 0.1 0.233s-0.033 0.167-0.1 0.233c-0.067 0.067-0.167 0.1-0.267 0.1z"></path>
<path fill="#39f" d="M27.8 25.8c-0.1 0-0.167-0.033-0.233-0.1s-0.1-0.133-0.1-0.267c0-0.1 0.033-0.167 0.1-0.233s0.167-0.1 0.233-0.1c0.1 0 0.167 0.033 0.233 0.1s0.1 0.133 0.1 0.267c0 0.1-0.033 0.2-0.1 0.267-0.067 0.033-0.133 0.067-0.233 0.067zM28.133 26.533v2.033c0 0.133-0.033 0.233-0.1 0.333-0.067 0.067-0.167 0.1-0.267 0.1s-0.2-0.033-0.233-0.1c-0.067-0.067-0.1-0.167-0.1-0.3v-2c0-0.133 0.033-0.233 0.1-0.3s0.133-0.1 0.233-0.1c0.1 0 0.2 0.033 0.267 0.1 0.067 0 0.1 0.1 0.1 0.233z"></path>
<path fill="#39f" d="M31.5 27.533c0 0.2-0.033 0.4-0.1 0.567s-0.167 0.333-0.267 0.467c-0.133 0.133-0.267 0.233-0.433 0.3s-0.367 0.1-0.567 0.1c-0.2 0-0.4-0.033-0.567-0.1s-0.3-0.167-0.433-0.3c-0.133-0.133-0.233-0.267-0.267-0.467-0.067-0.167-0.1-0.367-0.1-0.567s0.033-0.4 0.1-0.567c0.067-0.167 0.167-0.333 0.267-0.467 0.133-0.133 0.267-0.233 0.433-0.3s0.367-0.1 0.567-0.1c0.2 0 0.4 0.033 0.567 0.1s0.333 0.167 0.433 0.3c0.133 0.133 0.2 0.267 0.267 0.467 0.067 0.167 0.1 0.367 0.1 0.567zM30.8 27.533c0-0.3-0.067-0.5-0.2-0.667s-0.3-0.233-0.5-0.233c-0.133 0-0.267 0.033-0.367 0.1s-0.2 0.167-0.233 0.3c-0.067 0.133-0.1 0.3-0.1 0.5 0 0.167 0.033 0.333 0.067 0.467 0.067 0.133 0.133 0.233 0.233 0.3s0.233 0.1 0.367 0.1c0.2 0 0.367-0.067 0.5-0.233 0.167-0.133 0.233-0.333 0.233-0.633z"></path>
</svg>
