<!-- Generated by IcoMoon.io -->
<svg version="1.1" xmlns="http://www.w3.org/2000/svg" width="32" height="32" viewBox="0 0 32 32">
<title>logo-outlined</title>
<path fill="#3aaefc" d="M28.6 13.233c-0.4-0.5-0.867-0.967-1.4-1.333-0.433-0.3-0.9-0.533-1.367-0.733 0-0.9-0.2-1.767-0.6-2.567-0.367-0.8-0.9-1.533-1.6-2.167-0.667-0.633-1.467-1.1-2.333-1.433-0.9-0.367-1.867-0.533-2.833-0.533-1.3 0-2.6 0.333-3.7 0.933-0.5 0.267-1 0.6-1.4 1v-1.9c0-0.367-0.3-0.7-0.7-0.7v0c-0.367 0-0.7 0.3-0.7 0.7 0 0.9 0 1.8-0.033 2.733-0.5-0.167-1.033-0.267-1.6-0.267-1.233 0-2.4 0.433-3.267 1.233-0.433 0.4-0.767 0.867-1 1.367-0.233 0.533-0.367 1.1-0.367 1.7 0 0.3 0.033 0.633 0.1 0.933-1.067 0.333-2.033 0.933-2.767 1.733-0.433 0.5-0.767 1.033-1.033 1.633-0.233 0.6-0.333 1.267-0.333 1.933 0 0.767 0.167 1.5 0.467 2.167s0.733 1.267 1.3 1.767c1.133 1.033 2.6 1.6 4.167 1.6 0.033 0 0.033 0 0.067 0h15.533c0.033 0 0.1 0 0.133 0 0 0.5 0 1 0 1.5v0c0 0 0 0 0 0 0 0.367 0.3 0.7 0.7 0.7 0 0 0 0 0 0 0.367 0 0.7-0.3 0.7-0.7v-1.667c0.367-0.067 0.7-0.2 1.067-0.333 0.8-0.3 1.5-0.767 2.133-1.3 0.567-0.567 1.067-1.233 1.4-1.967 0.367-0.767 0.533-1.567 0.533-2.433 0-1.3-0.433-2.567-1.267-3.6zM27.1 20.367c-0.667 0.6-1.467 1.067-2.367 1.3-0.433 0.133-0.9 0.167-1.367 0.2-0.033 0-0.1 0-0.133 0h-15.533c-1.3 0-2.5-0.467-3.433-1.3-0.9-0.833-1.4-1.933-1.4-3.067 0-0.5 0.1-1 0.3-1.5 0.2-0.467 0.467-0.9 0.8-1.267 0.7-0.767 1.667-1.333 2.767-1.533l0.733-0.133-0.267-0.667c-0.133-0.367-0.233-0.733-0.233-1.1 0-0.833 0.367-1.6 1-2.2 0.667-0.6 1.533-0.933 2.467-0.933 0.567 0 1.1 0.133 1.6 0.333 0.133 0.067 0.233 0.133 0.367 0.2l0.5 0.3 0.3-0.5c0.067-0.1 0.133-0.233 0.233-0.333 0.5-0.7 1.2-1.3 2-1.733 0.933-0.5 2.033-0.8 3.133-0.8 1.667 0 3.2 0.6 4.367 1.667s1.8 2.467 1.8 3.967c0 0.1 0 0.2 0 0.3l-0.133 0.433 0.433 0.133c1.067 0.333 1.967 0.967 2.633 1.8 0.667 0.867 1.033 1.867 1.033 2.9 0 1.333-0.567 2.6-1.6 3.533z"></path>
<path fill="#40affc" d="M2.633 26.467c-0.1 0-0.167-0.033-0.233-0.1-0.067-0.033-0.1-0.133-0.1-0.233s0.033-0.167 0.1-0.233c0.067-0.067 0.167-0.1 0.233-0.1 0.1 0 0.167 0.033 0.233 0.1 0.1 0.033 0.133 0.133 0.133 0.233s-0.033 0.2-0.1 0.233c-0.067 0.067-0.167 0.1-0.267 0.1zM3 27.167v2c0 0.133-0.033 0.233-0.1 0.3s-0.133 0.1-0.233 0.1-0.167-0.033-0.233-0.1c-0.067-0.067-0.1-0.167-0.1-0.3v-1.967c0-0.133 0.033-0.233 0.1-0.3s0.133-0.1 0.233-0.1 0.2 0.033 0.233 0.1c0.067 0.067 0.1 0.167 0.1 0.267z"></path>
<path fill="#40affc" d="M4.333 27.167v0.067c0.133-0.167 0.267-0.267 0.4-0.367 0.133-0.067 0.3-0.1 0.5-0.1 0.167 0 0.333 0.033 0.5 0.133 0.133 0.067 0.233 0.2 0.333 0.333 0.033 0.1 0.067 0.167 0.1 0.267 0 0.1 0.033 0.233 0.033 0.367v1.267c0 0.133-0.033 0.233-0.1 0.3s-0.133 0.1-0.233 0.1c-0.1 0-0.2-0.033-0.233-0.1-0.067-0.067-0.1-0.167-0.1-0.3v-1.133c0-0.233-0.033-0.4-0.1-0.533s-0.2-0.167-0.367-0.167c-0.133 0-0.233 0.033-0.333 0.1s-0.167 0.167-0.233 0.3c-0.033 0.1-0.067 0.3-0.067 0.567v0.867c0 0.133-0.033 0.233-0.1 0.3s-0.133 0.1-0.267 0.1c-0.1 0-0.167-0.033-0.233-0.1s-0.1-0.167-0.1-0.3v-2c0-0.133 0.033-0.233 0.1-0.3s0.133-0.1 0.233-0.1c0.067 0 0.1 0 0.167 0.033 0.033 0.033 0.1 0.067 0.133 0.133-0.067 0.133-0.033 0.2-0.033 0.267z"></path>
<path fill="#40affc" d="M6.867 26.833h0.067v-0.4c0-0.1 0-0.2 0-0.267s0.033-0.133 0.033-0.167c0.033-0.033 0.067-0.1 0.1-0.1 0.067-0.033 0.1-0.033 0.167-0.033 0.1 0 0.167 0.033 0.233 0.1 0.033 0.033 0.067 0.1 0.1 0.167 0 0.067 0.033 0.167 0.033 0.267v0.467h0.267c0.1 0 0.167 0.033 0.233 0.067s0.067 0.1 0.067 0.167c0 0.1-0.033 0.167-0.1 0.2s-0.167 0.033-0.333 0.033h-0.133v1.267c0 0.1 0 0.2 0 0.233 0 0.067 0.033 0.1 0.067 0.133s0.1 0.067 0.167 0.067c0.033 0 0.1 0 0.167-0.033 0.067 0 0.133-0.033 0.167-0.033 0.067 0 0.1 0.033 0.167 0.067 0.033 0.033 0.067 0.1 0.067 0.167 0 0.1-0.067 0.2-0.167 0.267-0.133 0.067-0.3 0.1-0.533 0.1-0.2 0-0.367-0.033-0.5-0.1-0.1-0.067-0.2-0.167-0.233-0.3s-0.067-0.3-0.067-0.5v-1.333h-0.1c-0.1 0-0.167-0.033-0.233-0.067s-0.067-0.1-0.067-0.167c0-0.067 0.033-0.133 0.067-0.167 0.1-0.067 0.2-0.1 0.3-0.1z"></path>
<path fill="#40affc" d="M10.567 28.367h-1.333c0 0.167 0.033 0.3 0.1 0.4 0.067 0.133 0.133 0.2 0.233 0.267s0.2 0.1 0.333 0.1c0.067 0 0.167 0 0.233-0.033s0.133-0.033 0.2-0.1c0.067-0.033 0.133-0.1 0.167-0.133 0.067-0.033 0.133-0.1 0.2-0.2 0.033-0.033 0.1-0.033 0.167-0.033s0.133 0.033 0.167 0.067c0.033 0.033 0.067 0.1 0.067 0.167s-0.033 0.133-0.067 0.233c-0.033 0.067-0.133 0.167-0.233 0.233s-0.233 0.133-0.367 0.2c-0.133 0.067-0.333 0.067-0.5 0.067-0.433 0-0.8-0.133-1.033-0.367-0.233-0.267-0.367-0.6-0.367-1.033 0-0.2 0.033-0.4 0.1-0.567s0.133-0.333 0.267-0.433c0.1-0.133 0.267-0.233 0.433-0.3s0.367-0.1 0.567-0.1c0.267 0 0.5 0.067 0.7 0.167s0.333 0.267 0.433 0.433c0.1 0.167 0.133 0.367 0.133 0.533s-0.033 0.3-0.133 0.333c-0.133 0.067-0.3 0.1-0.467 0.1zM9.233 27.967h1.233c-0.033-0.233-0.067-0.4-0.2-0.533-0.1-0.133-0.267-0.167-0.433-0.167s-0.3 0.067-0.433 0.167c-0.1 0.133-0.167 0.3-0.167 0.533z"></path>
<path fill="#40affc" d="M12.4 28.6v0.567c0 0.133-0.033 0.233-0.1 0.3s-0.133 0.1-0.233 0.1c-0.1 0-0.167-0.033-0.233-0.1s-0.1-0.167-0.1-0.3v-1.9c0-0.3 0.1-0.467 0.333-0.467 0.1 0 0.2 0.033 0.233 0.1 0.067 0.067 0.067 0.167 0.067 0.333 0.067-0.133 0.167-0.233 0.267-0.333 0.1-0.067 0.2-0.1 0.333-0.1s0.3 0.033 0.433 0.1c0.133 0.067 0.2 0.167 0.2 0.3 0 0.1-0.033 0.167-0.1 0.2-0.067 0.067-0.133 0.067-0.2 0.067-0.033 0-0.1 0-0.167-0.033-0.1-0.033-0.167-0.033-0.267-0.033s-0.167 0.033-0.233 0.067c-0.067 0.067-0.1 0.133-0.133 0.233s-0.067 0.233-0.067 0.367c-0.033 0.133-0.033 0.333-0.033 0.533z"></path>
<path fill="#40affc" d="M16.3 28.733c0 0.1-0.033 0.167-0.067 0.267-0.067 0.1-0.133 0.2-0.233 0.267-0.1 0.1-0.233 0.167-0.4 0.2-0.167 0.067-0.333 0.067-0.533 0.067-0.433 0-0.767-0.133-1-0.367s-0.367-0.567-0.367-1c0-0.267 0.067-0.533 0.167-0.733 0.1-0.233 0.267-0.4 0.467-0.5 0.2-0.133 0.467-0.167 0.733-0.167 0.167 0 0.333 0.033 0.5 0.067 0.133 0.067 0.267 0.133 0.367 0.2s0.167 0.167 0.233 0.267c0.067 0.1 0.067 0.167 0.067 0.267 0 0.067-0.033 0.167-0.1 0.2-0.067 0.067-0.133 0.1-0.233 0.1-0.067 0-0.1 0-0.133-0.033s-0.067-0.067-0.133-0.133c-0.1-0.133-0.167-0.233-0.267-0.3s-0.2-0.1-0.333-0.1c-0.2 0-0.367 0.067-0.5 0.233s-0.2 0.367-0.2 0.667c0 0.133 0 0.233 0.033 0.367 0.033 0.1 0.067 0.2 0.133 0.267s0.133 0.133 0.233 0.167c0.1 0.033 0.167 0.067 0.267 0.067 0.133 0 0.267-0.033 0.367-0.1s0.2-0.167 0.267-0.3c0.033-0.067 0.1-0.133 0.133-0.167s0.1-0.067 0.167-0.067c0.1 0 0.167 0.033 0.2 0.1 0.167 0.067 0.167 0.133 0.167 0.2z"></path>
<path fill="#40affc" d="M18.833 28.367h-1.333c0 0.167 0.033 0.3 0.1 0.4 0.067 0.133 0.133 0.2 0.233 0.267s0.2 0.1 0.333 0.1c0.067 0 0.167 0 0.233-0.033s0.133-0.033 0.2-0.1c0.067-0.033 0.133-0.1 0.167-0.133 0.067-0.033 0.133-0.1 0.2-0.2 0.033-0.033 0.1-0.033 0.167-0.033s0.133 0.033 0.167 0.067c0.033 0.033 0.067 0.1 0.067 0.167s-0.033 0.133-0.067 0.233c-0.033 0.067-0.133 0.167-0.233 0.233s-0.233 0.133-0.367 0.2c-0.133 0.067-0.333 0.067-0.5 0.067-0.433 0-0.8-0.133-1.033-0.367-0.233-0.267-0.367-0.6-0.367-1.033 0-0.2 0.033-0.4 0.1-0.567s0.133-0.333 0.267-0.433c0.1-0.133 0.267-0.233 0.433-0.3s0.367-0.1 0.567-0.1c0.267 0 0.5 0.067 0.7 0.167s0.333 0.267 0.433 0.433c0.1 0.167 0.133 0.367 0.133 0.533s-0.033 0.3-0.133 0.333c-0.133 0.067-0.3 0.1-0.467 0.1zM17.5 27.967h1.233c-0.033-0.233-0.067-0.4-0.2-0.533-0.1-0.133-0.267-0.167-0.433-0.167s-0.3 0.067-0.433 0.167c-0.1 0.133-0.167 0.3-0.167 0.533z"></path>
<path fill="#40affc" d="M20.533 27.167v0.067c0.133-0.167 0.267-0.267 0.4-0.367 0.133-0.067 0.3-0.1 0.467-0.1 0.2 0 0.4 0.067 0.6 0.167 0.167 0.1 0.333 0.267 0.433 0.467s0.167 0.467 0.167 0.733c0 0.2-0.033 0.4-0.1 0.6-0.067 0.167-0.133 0.333-0.233 0.433-0.1 0.133-0.233 0.2-0.367 0.267s-0.3 0.1-0.467 0.1c-0.2 0-0.367-0.033-0.5-0.133-0.133-0.067-0.267-0.2-0.367-0.333v1.033c0 0.3-0.1 0.467-0.333 0.467-0.133 0-0.2-0.033-0.267-0.133-0.033-0.067-0.067-0.2-0.067-0.333v-2.967c0-0.133 0.033-0.233 0.1-0.3s0.133-0.1 0.233-0.1c0.1 0 0.167 0.033 0.233 0.1 0.067 0.133 0.067 0.233 0.067 0.333zM21.9 28.167c0-0.167-0.033-0.333-0.067-0.467-0.067-0.133-0.133-0.233-0.233-0.3s-0.2-0.1-0.333-0.1c-0.2 0-0.367 0.067-0.467 0.233-0.133 0.133-0.2 0.367-0.2 0.667 0 0.267 0.067 0.5 0.2 0.633 0.133 0.167 0.3 0.233 0.467 0.233 0.1 0 0.233-0.033 0.333-0.1s0.167-0.167 0.233-0.3c0.033-0.133 0.067-0.3 0.067-0.5z"></path>
<path fill="#40affc" d="M23.167 26.833h0.067v-0.4c0-0.1 0-0.2 0-0.267s0.033-0.133 0.033-0.167c0.033-0.033 0.067-0.1 0.1-0.1 0.067-0.033 0.1-0.033 0.167-0.033 0.1 0 0.167 0.033 0.233 0.1 0.033 0.033 0.067 0.1 0.1 0.167 0 0.067 0.033 0.167 0.033 0.267v0.467h0.267c0.1 0 0.167 0.033 0.233 0.067s0.067 0.1 0.067 0.167c0 0.1-0.033 0.167-0.1 0.2s-0.167 0.033-0.3 0.033h-0.133v1.267c0 0.1 0 0.2 0 0.233 0 0.067 0.033 0.1 0.067 0.133s0.1 0.067 0.167 0.067c0.033 0 0.1 0 0.167-0.033 0.067 0 0.133-0.033 0.167-0.033 0.067 0 0.1 0.033 0.167 0.067 0.033 0.033 0.067 0.1 0.067 0.167 0 0.1-0.067 0.2-0.167 0.267-0.133 0.067-0.3 0.1-0.533 0.1-0.2 0-0.367-0.033-0.5-0.1-0.1-0.067-0.2-0.167-0.233-0.3s-0.067-0.3-0.067-0.5v-1.333h-0.1c-0.1 0-0.167-0.033-0.233-0.067s-0.067-0.1-0.067-0.167c0-0.067 0.033-0.133 0.067-0.167 0.1-0.067 0.167-0.1 0.267-0.1z"></path>
<path fill="#40affc" d="M25.867 28.5h-0.8c-0.133 0-0.2-0.033-0.267-0.1s-0.1-0.133-0.1-0.233c0-0.1 0.033-0.167 0.1-0.233s0.167-0.1 0.267-0.1h0.8c0.133 0 0.233 0.033 0.267 0.1 0.067 0.067 0.1 0.133 0.1 0.233s-0.033 0.167-0.1 0.233c-0.033 0.067-0.133 0.1-0.267 0.1z"></path>
<path fill="#40affc" d="M27.033 26.467c-0.1 0-0.167-0.033-0.233-0.1s-0.1-0.133-0.1-0.233c0-0.1 0.033-0.167 0.1-0.233s0.167-0.1 0.233-0.1c0.1 0 0.167 0.033 0.233 0.1s0.1 0.133 0.1 0.233c0 0.1-0.033 0.2-0.1 0.233-0.067 0.067-0.133 0.1-0.233 0.1zM27.367 27.167v2c0 0.133-0.033 0.233-0.1 0.3s-0.133 0.1-0.233 0.1c-0.1 0-0.167-0.033-0.233-0.1s-0.1-0.167-0.1-0.3v-1.967c0-0.133 0.033-0.233 0.1-0.3s0.133-0.1 0.233-0.1c0.1 0 0.2 0.033 0.233 0.1 0.067 0.067 0.1 0.167 0.1 0.267z"></path>
<path fill="#40affc" d="M30.667 28.2c0 0.2-0.033 0.4-0.1 0.567s-0.167 0.333-0.267 0.433c-0.133 0.133-0.267 0.233-0.433 0.3s-0.367 0.1-0.567 0.1c-0.2 0-0.4-0.033-0.567-0.1s-0.3-0.167-0.433-0.3c-0.133-0.133-0.2-0.267-0.267-0.433s-0.1-0.367-0.1-0.567c0-0.2 0.033-0.4 0.1-0.567s0.167-0.333 0.267-0.433c0.133-0.133 0.267-0.233 0.433-0.3s0.367-0.1 0.567-0.1c0.2 0 0.4 0.033 0.567 0.1s0.3 0.167 0.433 0.3c0.133 0.133 0.2 0.267 0.267 0.433s0.1 0.333 0.1 0.567zM29.967 28.2c0-0.267-0.067-0.5-0.2-0.667s-0.3-0.233-0.5-0.233c-0.133 0-0.267 0.033-0.367 0.1s-0.167 0.167-0.233 0.3c-0.067 0.133-0.067 0.3-0.067 0.467s0.033 0.333 0.067 0.467c0.067 0.133 0.133 0.233 0.233 0.3s0.233 0.1 0.367 0.1c0.2 0 0.367-0.067 0.5-0.233 0.133-0.1 0.2-0.333 0.2-0.6z"></path>
</svg>
