<!-- Generated by IcoMoon.io -->
<svg version="1.1" xmlns="http://www.w3.org/2000/svg" width="32" height="32" viewBox="0 0 32 32">
<title>round-check-circle-outline</title>
<path d="M16 2.667c-7.36 0-13.333 5.973-13.333 13.333s5.973 13.333 13.333 13.333 13.333-5.973 13.333-13.333-5.973-13.333-13.333-13.333zM16 26.667c-5.88 0-10.667-4.787-10.667-10.667s4.787-10.667 10.667-10.667 10.667 4.787 10.667 10.667-4.787 10.667-10.667 10.667zM21.173 11.053l-7.84 7.84-2.507-2.507c-0.52-0.52-1.36-0.52-1.88 0s-0.52 1.36 0 1.88l3.453 3.453c0.52 0.52 1.36 0.52 1.88 0l8.787-8.787c0.52-0.52 0.52-1.36 0-1.88s-1.373-0.52-1.893 0z"></path>
</svg>
