<!-- Generated by IcoMoon.io -->
<svg version="1.1" xmlns="http://www.w3.org/2000/svg" width="32" height="32" viewBox="0 0 32 32">
<title>round-error-outline</title>
<path d="M16 9.333c0.733 0 1.333 0.6 1.333 1.333v5.333c0 0.733-0.6 1.333-1.333 1.333s-1.333-0.6-1.333-1.333v-5.333c0-0.733 0.6-1.333 1.333-1.333zM15.987 2.667c-7.36 0-13.32 5.973-13.32 13.333s5.96 13.333 13.32 13.333c7.373 0 13.347-5.973 13.347-13.333s-5.973-13.333-13.347-13.333zM16 26.667c-5.893 0-10.667-4.773-10.667-10.667s4.773-10.667 10.667-10.667 10.667 4.773 10.667 10.667-4.773 10.667-10.667 10.667zM17.333 22.667h-2.667v-2.667h2.667v2.667z"></path>
</svg>
