<!-- Generated by IcoMoon.io -->
<svg version="1.1" xmlns="http://www.w3.org/2000/svg" width="32" height="32" viewBox="0 0 32 32">
<title>round-import-export</title>
<path d="M11.533 4.467l-3.72 3.72c-0.427 0.413-0.133 1.133 0.467 1.133h2.387v8.013c0 0.733 0.6 1.333 1.333 1.333s1.333-0.6 1.333-1.333v-8.013h2.387c0.6 0 0.893-0.72 0.467-1.133l-3.72-3.72c-0.253-0.253-0.68-0.253-0.933 0zM21.333 22.68v-8.013c0-0.733-0.6-1.333-1.333-1.333s-1.333 0.6-1.333 1.333v8.013h-2.387c-0.6 0-0.893 0.72-0.467 1.133l3.72 3.707c0.267 0.253 0.68 0.253 0.947 0l3.72-3.707c0.427-0.413 0.12-1.133-0.467-1.133h-2.4z"></path>
</svg>
