<!-- Generated by IcoMoon.io -->
<svg version="1.1" xmlns="http://www.w3.org/2000/svg" width="32" height="32" viewBox="0 0 32 32">
<title>round-check-box-outline</title>
<path d="M24 25.333h-16c-0.733 0-1.333-0.6-1.333-1.333v-16c0-0.733 0.6-1.333 1.333-1.333h16c0.733 0 1.333 0.6 1.333 1.333v16c0 0.733-0.6 1.333-1.333 1.333zM25.333 4h-18.667c-1.467 0-2.667 1.2-2.667 2.667v18.667c0 1.467 1.2 2.667 2.667 2.667h18.667c1.467 0 2.667-1.2 2.667-2.667v-18.667c0-1.467-1.2-2.667-2.667-2.667z"></path>
</svg>
