<!-- Generated by IcoMoon.io -->
<svg version="1.1" xmlns="http://www.w3.org/2000/svg" width="32" height="32" viewBox="0 0 32 32">
<title>round-add-circle-outline</title>
<path d="M16 9.333c-0.733 0-1.333 0.6-1.333 1.333v4h-4c-0.733 0-1.333 0.6-1.333 1.333s0.6 1.333 1.333 1.333h4v4c0 0.733 0.6 1.333 1.333 1.333s1.333-0.6 1.333-1.333v-4h4c0.733 0 1.333-0.6 1.333-1.333s-0.6-1.333-1.333-1.333h-4v-4c0-0.733-0.6-1.333-1.333-1.333zM16 2.667c-7.36 0-13.333 5.973-13.333 13.333s5.973 13.333 13.333 13.333 13.333-5.973 13.333-13.333-5.973-13.333-13.333-13.333zM16 26.667c-5.88 0-10.667-4.787-10.667-10.667s4.787-10.667 10.667-10.667 10.667 4.787 10.667 10.667-4.787 10.667-10.667 10.667z"></path>
</svg>
