<!-- Generated by IcoMoon.io -->
<svg version="1.1" xmlns="http://www.w3.org/2000/svg" width="32" height="32" viewBox="0 0 32 32">
<title>round-cloud-done</title>
<path d="M25.8 13.387c-0.907-4.6-4.947-8.053-9.8-8.053-3.853 0-7.2 2.187-8.867 5.387-4.013 0.427-7.133 3.827-7.133 7.947 0 4.413 3.587 8 8 8h17.333c3.68 0 6.667-2.987 6.667-6.667 0-3.52-2.733-6.373-6.2-6.613zM14.28 21.72c-0.52 0.52-1.36 0.52-1.88 0l-2.8-2.787c-0.52-0.52-0.52-1.36 0-1.88s1.36-0.52 1.88 0l1.853 1.853 5.973-5.973c0.52-0.52 1.36-0.52 1.88 0s0.52 1.36 0 1.88l-6.907 6.907z"></path>
</svg>
