<!-- Generated by IcoMoon.io -->
<svg version="1.1" xmlns="http://www.w3.org/2000/svg" width="32" height="32" viewBox="0 0 32 32">
<title>round-check-box</title>
<path d="M25.333 4h-18.667c-1.467 0-2.667 1.2-2.667 2.667v18.667c0 1.467 1.2 2.667 2.667 2.667h18.667c1.467 0 2.667-1.2 2.667-2.667v-18.667c0-1.467-1.2-2.667-2.667-2.667zM14.28 21.72c-0.52 0.52-1.36 0.52-1.88 0l-4.787-4.787c-0.52-0.52-0.52-1.36 0-1.88s1.36-0.52 1.88 0l3.84 3.84 9.173-9.173c0.52-0.52 1.36-0.52 1.88 0s0.52 1.36 0 1.88l-10.107 10.12z"></path>
</svg>
