<!-- Generated by IcoMoon.io -->
<svg version="1.1" xmlns="http://www.w3.org/2000/svg" width="32" height="32" viewBox="0 0 32 32">
<title>round-call</title>
<path d="M25.64 20.347l-3.387-0.387c-0.813-0.093-1.613 0.187-2.187 0.76l-2.453 2.453c-3.773-1.92-6.867-5-8.787-8.787l2.467-2.467c0.573-0.573 0.853-1.373 0.76-2.187l-0.387-3.36c-0.16-1.347-1.293-2.36-2.653-2.36h-2.307c-1.507 0-2.76 1.253-2.667 2.76 0.707 11.387 9.813 20.48 21.187 21.187 1.507 0.093 2.76-1.16 2.76-2.667v-2.307c0.013-1.347-1-2.48-2.347-2.64z"></path>
</svg>
