<!-- Generated by IcoMoon.io -->
<svg version="1.1" xmlns="http://www.w3.org/2000/svg" width="32" height="32" viewBox="0 0 32 32">
<title>round-menu</title>
<path d="M5.333 24h21.333c0.733 0 1.333-0.6 1.333-1.333s-0.6-1.333-1.333-1.333h-21.333c-0.733 0-1.333 0.6-1.333 1.333s0.6 1.333 1.333 1.333zM5.333 17.333h21.333c0.733 0 1.333-0.6 1.333-1.333s-0.6-1.333-1.333-1.333h-21.333c-0.733 0-1.333 0.6-1.333 1.333s0.6 1.333 1.333 1.333zM4 9.333c0 0.733 0.6 1.333 1.333 1.333h21.333c0.733 0 1.333-0.6 1.333-1.333s-0.6-1.333-1.333-1.333h-21.333c-0.733 0-1.333 0.6-1.333 1.333z"></path>
</svg>
