<!-- Generated by IcoMoon.io -->
<svg version="1.1" xmlns="http://www.w3.org/2000/svg" width="32" height="32" viewBox="0 0 32 32">
<title>single-cloud</title>
<path fill="#32aafc" d="M25.833 14.9l-0.233-0.067v-0.233c0-0.1 0-0.233 0-0.333 0-1.7-0.733-3.333-2.033-4.533-1.333-1.233-3.1-1.9-4.967-1.9 0 0 0 0-0.033 0-2.5 0-4.833 1.233-6.1 3.233l-0.167 0.267-0.267-0.167c-0.667-0.433-1.467-0.633-2.267-0.633 0 0 0 0 0 0-2.267 0-4.1 1.667-4.1 3.733 0 0.467 0.1 0.9 0.267 1.333l0.133 0.333-0.367 0.067c-2.5 0.433-4.4 2.533-4.4 4.933 0 1.367 0.567 2.633 1.6 3.6s2.433 1.5 3.933 1.5l16.867 0.033c0 0 0 0 0.033 0 3.467 0 6.3-2.567 6.3-5.733 0-2.433-1.667-4.6-4.2-5.433z"></path>
<path fill="#32aafc" d="M23.733 26.1c0 0 0 0 0 0l-16.9-0.033c-1.5 0-2.9-0.533-3.933-1.5s-1.6-2.233-1.6-3.6c0-2.4 1.867-4.5 4.467-4.967l0.367-0.067-0.133-0.333c-0.167-0.433-0.267-0.867-0.267-1.333 0-2.067 1.833-3.733 4.1-3.733 0 0 0 0 0 0 0.833 0 1.6 0.233 2.267 0.633l0.267 0.167 0.167-0.267c1.267-2 3.6-3.233 6.1-3.233 0 0 0 0 0.033 0 1.867 0 3.667 0.667 4.967 1.9 1.333 1.233 2.033 2.833 2.033 4.533 0 0.1 0 0.233 0 0.333v0.233l0.233 0.067c2.5 0.833 4.2 3 4.2 5.433-0.067 3.2-2.9 5.767-6.367 5.767z"></path>
</svg>
