<!-- Generated by IcoMoon.io -->
<svg version="1.1" xmlns="http://www.w3.org/2000/svg" width="32" height="32" viewBox="0 0 32 32">
<title>single-cloud-outlined</title>
<path fill="#36abfc" d="M27.433 12.433c0.033-1.933-0.7-3.733-2.067-5.133-1.5-1.567-3.567-2.4-5.833-2.4 0 0 0 0-0.033 0-2.667 0-5.167 1.233-6.767 3.267-0.667-0.3-1.433-0.467-2.2-0.467-2.867 0-5.267 2.2-5.367 4.933 0 0.333 0 0.667 0.067 0.967-2.7 0.867-4.667 3.267-4.767 6-0.067 1.6 0.533 3.167 1.7 4.367 1.233 1.267 2.933 1.967 4.8 1.967 0 0 0 0 0 0l17.033-0.033c4.067 0 7.5-3.167 7.633-7.033 0.1-2.8-1.567-5.333-4.2-6.433zM24 24.367l-17.033 0.033c0 0 0 0 0 0-1.433 0-2.733-0.533-3.7-1.5-0.867-0.9-1.3-2.067-1.267-3.267 0.067-2.3 1.9-4.3 4.3-4.733l0.9-0.167-0.3-0.833c-0.133-0.4-0.2-0.8-0.2-1.2 0.067-1.9 1.8-3.433 3.833-3.467 0.733 0 1.433 0.2 2.033 0.567l0.633 0.4 0.4-0.633c1.267-1.933 3.533-3.167 5.9-3.167 0 0 0 0 0 0 1.833 0 3.533 0.7 4.733 1.933 1.1 1.133 1.7 2.633 1.633 4.2 0 0.1 0 0.2-0.033 0.333l-0.033 0.6 0.567 0.2c2.3 0.767 3.8 2.833 3.733 5.167-0.1 3.033-2.833 5.533-6.1 5.533z"></path>
</svg>
